# Blender v2.80 (sub 75) OBJ File: 'barrel.blend'
# www.blender.org
mtllib barrel.mtl
o Cube
v 0.523253 0.523253 -0.799746
v -0.320756 0.739534 3.008162
v -0.584029 0.563621 3.008162
v -0.759943 0.300348 3.008162
v -0.010204 0.989796 0.008162
v -0.934084 0.372479 0.008162
v -0.717311 0.696903 0.008162
v -0.392887 0.913675 0.008162
v 0.801307 -0.010204 3.008162
v -0.010204 0.801307 3.008162
v 0.739535 0.300348 3.008162
v 0.563621 0.563621 3.008162
v 0.300348 0.739534 3.008162
v -0.010204 0.989796 0.008162
v 0.989796 -0.010204 0.008162
v 0.372479 0.913675 0.008162
v 0.696903 0.696903 0.008162
v 0.913675 0.372479 0.008162
v -0.821715 -0.010204 3.008162
v -0.010204 -0.821716 3.008162
v -0.759943 -0.320756 3.008162
v -0.584029 -0.584029 3.008162
v -0.320756 -0.759943 3.008162
v -1.010204 -0.010204 0.008162
v -0.392887 -0.934084 0.008162
v -0.717311 -0.717311 0.008162
v -0.934084 -0.392888 0.008162
v 0.300348 -0.759943 3.008162
v 0.563621 -0.584029 3.008162
v 0.739535 -0.320756 3.008162
v 0.989796 -0.010204 0.008162
v -0.010204 -1.010204 0.008162
v 0.913675 -0.392888 0.008162
v 0.696903 -0.717311 0.008162
v 0.372479 -0.934084 0.008162
v 0.913675 0.372479 3.008162
v 0.989796 -0.010204 3.008162
v 0.696903 0.696903 3.008162
v 0.372479 0.913675 3.008162
v -0.010204 0.989796 3.008162
v -0.717311 0.696903 3.008162
v -0.392887 0.913675 3.008162
v -0.934084 0.372479 3.008162
v -0.934084 -0.392888 3.008162
v -1.010204 -0.010204 3.008162
v -0.717311 -0.717311 3.008162
v -0.392887 -0.934084 3.008162
v -0.010204 -1.010204 3.008162
v 0.913675 -0.392888 3.008162
v 0.696903 -0.717311 3.008162
v 0.372479 -0.934084 3.008162
v 0.739535 0.300348 3.008162
v 0.801307 -0.010204 3.008162
v 0.563621 0.563621 3.008162
v 0.300348 0.739534 3.008162
v -0.010204 0.801307 3.008162
v -0.584029 0.563621 3.008162
v -0.320756 0.739534 3.008162
v -0.759943 0.300348 3.008162
v -0.759943 -0.320756 3.008162
v -0.821715 -0.010204 3.008162
v -0.584029 -0.584029 3.008162
v -0.320756 -0.759943 3.008162
v -0.010204 -0.821716 3.008162
v 0.739535 -0.320756 3.008162
v 0.563621 -0.584029 3.008162
v 0.300348 -0.759943 3.008162
v 0.739535 0.300348 3.008162
v 0.801307 -0.010204 3.008162
v 0.563621 0.563621 3.008162
v 0.300348 0.739534 3.008162
v -0.010204 0.801307 3.008162
v -0.584029 0.563621 3.008162
v -0.320756 0.739534 3.008162
v -0.759943 0.300348 3.008162
v -0.759943 -0.320756 3.008162
v -0.821715 -0.010204 3.008162
v -0.584029 -0.584029 3.008162
v -0.320756 -0.759943 3.008162
v -0.010204 -0.821716 3.008162
v 0.739535 -0.320756 3.008162
v 0.563621 -0.584029 3.008162
v 0.300348 -0.759943 3.008162
v 0.739535 0.300348 0.208163
v 0.801307 -0.010204 0.208163
v 0.563621 0.563621 0.208163
v 0.300348 0.739534 0.208163
v -0.010204 0.801307 0.208163
v -0.584029 0.563621 0.208163
v -0.320756 0.739534 0.208163
v -0.759943 0.300348 0.208163
v -0.759943 -0.320756 0.208163
v -0.821715 -0.010204 0.208163
v -0.584029 -0.584029 0.208163
v -0.320756 -0.759943 0.208163
v -0.010204 -0.821716 0.208163
v 0.739535 -0.320756 0.208163
v 0.563621 -0.584029 0.208163
v 0.300348 -0.759943 0.208163
vt 0.250000 0.750000
vt 0.202165 0.740485
vt 0.294838 0.307612
vt 0.375000 0.875000
vt 0.375000 0.875000
vt 0.375000 0.875000
vt 0.375000 0.625000
vt 0.625000 0.625000
vt 0.375000 0.625000
vt 0.650722 0.798271
vt 0.625000 0.875000
vt 0.349279 0.798271
vt 0.637204 0.737796
vt 0.362796 0.737796
vt 0.628172 0.672835
vt 0.371828 0.672836
vt 0.628172 0.577165
vt 0.371828 0.577165
vt 0.637204 0.512204
vt 0.362796 0.512204
vt 0.650722 0.451729
vt 0.349279 0.451729
vt 0.625000 0.375000
vt 0.375000 0.375000
vt 0.682612 0.387948
vt 0.317388 0.387948
vt 0.696130 0.345537
vt 0.303871 0.345537
vt 0.705162 0.307612
vt 0.625000 0.125000
vt 0.375000 0.922835
vt 0.625000 0.922835
vt 0.375000 1.000000
vt 0.625000 0.000000
vt 0.375000 0.077165
vt 0.375000 0.000000
vt 0.625000 0.077165
vt 0.375000 0.125000
vt 0.715236 0.484834
vt 0.700253 0.429514
vt 0.715236 0.484834
vt 0.736795 0.730368
vt 0.676977 0.746390
vt 0.652770 0.712685
vt 0.643046 0.663785
vt 0.639692 0.620094
vt 0.642273 0.576047
vt 0.650846 0.525846
vt 0.672271 0.488497
vt 0.700253 0.429514
vt 0.704937 0.395022
vt 0.734961 0.415549
vt 0.818491 0.574918
vt 0.875000 0.625000
vt 0.814354 0.689354
vt 0.797835 0.740485
vt 0.781761 0.714298
vt 0.865485 0.672835
vt 0.838388 0.713388
vt 0.750000 0.500000
vt 0.750000 0.750000
vt 0.833142 0.650605
vt 0.833142 0.650605
vt 0.814354 0.689354
vt 0.833142 0.650605
vt 0.736795 0.730368
vt 0.781761 0.714298
vt 0.704937 0.395022
vt 0.676977 0.746390
vt 0.818491 0.574918
vt 0.734961 0.415549
vt 0.652770 0.712685
vt 0.643046 0.663785
vt 0.814354 0.689354
vt 0.639692 0.620094
vt 0.650846 0.525846
vt 0.642273 0.576047
vt 0.672271 0.488497
vt 0.818491 0.574918
vt 0.818491 0.574918
vt 0.650846 0.525846
vt 0.642273 0.576047
vt 0.639692 0.620094
vt 0.672271 0.488497
vt 0.715236 0.484834
vt 0.700253 0.429514
vt 0.736795 0.730368
vt 0.781761 0.714298
vt 0.704937 0.395022
vt 0.676977 0.746390
vt 0.734961 0.415549
vt 0.652770 0.712685
vt 0.643046 0.663785
vt 0.833142 0.650605
vt 0.781761 0.714298
vt 0.643046 0.663785
vt 0.704937 0.395022
vt 0.676977 0.746390
vt 0.734961 0.415549
vt 0.652770 0.712685
vt 0.814354 0.689354
vt 0.642273 0.576047
vt 0.639692 0.620094
vt 0.650846 0.525846
vt 0.672271 0.488497
vt 0.715236 0.484834
vt 0.700253 0.429514
vt 0.736795 0.730368
vt 0.134515 0.672835
vt 0.125000 0.625000
vt 0.250000 0.500000
vt 0.161612 0.713388
vt 0.250000 0.750000
vt 0.625000 1.000000
vn -0.0000 0.0000 -1.0000
vn 0.0000 0.0000 1.0000
vn 0.0000 -1.0000 0.0000
vn 0.9808 0.1951 0.0000
vn 0.8315 0.5556 0.0000
vn 0.5556 0.8315 0.0000
vn 0.1951 0.9808 0.0000
vn -0.1951 0.9808 0.0000
vn -0.5556 0.8315 0.0000
vn -0.8315 0.5556 0.0000
vn -0.9808 0.1951 0.0000
vn -0.9808 -0.1951 0.0000
vn -0.8315 -0.5556 0.0000
vn -0.5556 -0.8315 0.0000
vn -0.1951 -0.9808 0.0000
vn 0.9808 -0.1951 0.0000
vn 0.8315 -0.5556 0.0000
vn 0.5556 -0.8315 0.0000
vn 0.1951 -0.9808 0.0000
usemtl Material
s off
f 15/1/1 33/2/1 25/3/1
f 15/4/2 37/5/2 31/6/2
f 5/7/3 40/8/3 14/9/3
f 15/4/4 36/10/4 37/11/4
f 18/12/5 38/13/5 36/10/5
f 17/14/6 39/15/6 38/13/6
f 16/16/7 40/8/7 39/15/7
f 5/7/8 42/17/8 40/8/8
f 8/18/9 41/19/9 42/17/9
f 7/20/10 43/21/10 41/19/10
f 6/22/11 45/23/11 43/21/11
f 24/24/12 44/25/12 45/23/12
f 27/26/13 46/27/13 44/25/13
f 26/28/14 47/29/14 46/27/14
f 25/3/15 48/30/15 47/29/15
f 37/11/16 33/31/16 31/6/16
f 49/32/17 34/33/17 33/31/17
f 50/34/18 35/35/18 34/36/18
f 51/37/19 32/38/19 35/35/19
f 19/39/2 60/40/2 61/41/2
f 9/42/2 36/10/2 11/43/2
f 11/43/2 38/13/2 12/44/2
f 12/44/2 39/15/2 13/45/2
f 10/46/2 39/15/2 40/8/2
f 2/47/2 41/19/2 3/48/2
f 3/48/2 43/21/2 4/49/2
f 19/39/2 44/25/2 21/50/2
f 22/51/2 44/25/2 46/27/2
f 22/51/2 47/29/2 23/52/2
f 20/53/2 47/29/2 48/54/2
f 29/55/2 49/56/2 30/57/2
f 29/55/2 51/58/2 50/59/2
f 10/46/2 42/17/2 2/47/2
f 19/39/2 43/21/2 45/60/2
f 30/57/2 37/61/2 9/42/2
f 20/53/2 51/58/2 28/62/2
f 67/63/2 82/64/2 83/65/2
f 30/57/2 53/66/2 65/67/2
f 21/50/2 62/68/2 60/40/2
f 9/42/2 52/69/2 53/66/2
f 20/53/2 67/63/2 64/70/2
f 22/51/2 63/71/2 62/68/2
f 11/43/2 54/72/2 52/69/2
f 23/52/2 64/70/2 63/71/2
f 12/44/2 55/73/2 54/72/2
f 29/55/2 65/67/2 66/74/2
f 13/45/2 56/75/2 55/73/2
f 28/62/2 66/74/2 67/63/2
f 2/47/2 57/76/2 58/77/2
f 10/46/2 58/77/2 56/75/2
f 3/48/2 59/78/2 57/76/2
f 4/49/2 61/41/2 59/78/2
f 83/65/8 96/79/8 80/80/8
f 58/77/2 73/81/2 74/82/2
f 56/75/2 74/82/2 72/83/2
f 57/76/2 75/84/2 73/81/2
f 59/78/2 77/85/2 75/84/2
f 61/41/2 76/86/2 77/85/2
f 65/67/2 69/87/2 81/88/2
f 60/40/2 78/89/2 76/86/2
f 53/66/2 68/90/2 69/87/2
f 64/70/2 83/65/2 80/80/2
f 62/68/2 79/91/2 78/89/2
f 52/69/2 70/92/2 68/90/2
f 63/71/2 80/80/2 79/91/2
f 54/72/2 71/93/2 70/92/2
f 66/74/2 81/88/2 82/64/2
f 55/73/2 72/83/2 71/93/2
f 99/94/2 97/95/2 87/96/2
f 79/91/6 94/97/6 78/89/6
f 70/92/13 84/98/13 68/90/13
f 80/80/7 95/99/7 79/91/7
f 71/93/14 86/100/14 70/92/14
f 81/88/10 98/101/10 82/64/10
f 72/83/15 87/96/15 71/93/15
f 82/64/9 99/94/9 83/65/9
f 73/81/18 90/102/18 74/82/18
f 74/82/19 88/103/19 72/83/19
f 75/84/17 89/104/17 73/81/17
f 77/85/16 91/105/16 75/84/16
f 76/86/4 93/106/4 77/85/4
f 69/87/11 97/95/11 81/88/11
f 78/89/5 92/107/5 76/86/5
f 68/90/12 85/108/12 69/87/12
f 35/109/1 32/110/1 25/3/1
f 25/3/1 26/28/1 27/26/1
f 27/26/1 24/111/1 6/22/1
f 6/22/1 7/20/1 8/18/1
f 5/7/2 14/9/2 16/16/2
f 6/22/1 8/18/1 25/3/1
f 8/18/1 5/7/1 25/3/1
f 25/3/1 27/26/1 6/22/1
f 34/112/1 35/109/1 33/2/1
f 35/109/1 25/3/1 33/2/1
f 15/1/2 31/113/2 33/2/2
f 17/14/1 18/12/1 15/1/1
f 5/7/1 16/16/1 25/3/1
f 16/16/1 17/14/1 25/3/1
f 17/14/1 15/1/1 25/3/1
f 15/4/4 18/12/4 36/10/4
f 18/12/5 17/14/5 38/13/5
f 17/14/6 16/16/6 39/15/6
f 16/16/7 14/9/7 40/8/7
f 5/7/8 8/18/8 42/17/8
f 8/18/9 7/20/9 41/19/9
f 7/20/10 6/22/10 43/21/10
f 6/22/11 24/24/11 45/23/11
f 24/24/12 27/26/12 44/25/12
f 27/26/13 26/28/13 46/27/13
f 26/28/14 25/3/14 47/29/14
f 25/3/15 32/38/15 48/30/15
f 37/11/16 49/32/16 33/31/16
f 49/32/17 50/114/17 34/33/17
f 50/34/18 51/37/18 35/35/18
f 51/37/19 48/30/19 32/38/19
f 19/39/2 21/50/2 60/40/2
f 9/42/2 37/61/2 36/10/2
f 11/43/2 36/10/2 38/13/2
f 12/44/2 38/13/2 39/15/2
f 10/46/2 13/45/2 39/15/2
f 2/47/2 42/17/2 41/19/2
f 3/48/2 41/19/2 43/21/2
f 19/39/2 45/60/2 44/25/2
f 22/51/2 21/50/2 44/25/2
f 22/51/2 46/27/2 47/29/2
f 20/53/2 23/52/2 47/29/2
f 29/55/2 50/59/2 49/56/2
f 29/55/2 28/62/2 51/58/2
f 10/46/2 40/8/2 42/17/2
f 19/39/2 4/49/2 43/21/2
f 30/57/2 49/56/2 37/61/2
f 20/53/2 48/54/2 51/58/2
f 67/63/2 66/74/2 82/64/2
f 30/57/2 9/42/2 53/66/2
f 21/50/2 22/51/2 62/68/2
f 9/42/2 11/43/2 52/69/2
f 20/53/2 28/62/2 67/63/2
f 22/51/2 23/52/2 63/71/2
f 11/43/2 12/44/2 54/72/2
f 23/52/2 20/53/2 64/70/2
f 12/44/2 13/45/2 55/73/2
f 29/55/2 30/57/2 65/67/2
f 13/45/2 10/46/2 56/75/2
f 28/62/2 29/55/2 66/74/2
f 2/47/2 3/48/2 57/76/2
f 10/46/2 2/47/2 58/77/2
f 3/48/2 4/49/2 59/78/2
f 4/49/2 19/39/2 61/41/2
f 83/65/8 99/94/8 96/79/8
f 58/77/2 57/76/2 73/81/2
f 56/75/2 58/77/2 74/82/2
f 57/76/2 59/78/2 75/84/2
f 59/78/2 61/41/2 77/85/2
f 61/41/2 60/40/2 76/86/2
f 65/67/2 53/66/2 69/87/2
f 60/40/2 62/68/2 78/89/2
f 53/66/2 52/69/2 68/90/2
f 64/70/2 67/63/2 83/65/2
f 62/68/2 63/71/2 79/91/2
f 52/69/2 54/72/2 70/92/2
f 63/71/2 64/70/2 80/80/2
f 54/72/2 55/73/2 71/93/2
f 66/74/2 65/67/2 81/88/2
f 55/73/2 56/75/2 72/83/2
f 87/96/2 88/103/2 90/102/2
f 90/102/2 89/104/2 91/105/2
f 91/105/2 93/106/2 92/107/2
f 92/107/2 94/97/2 95/99/2
f 95/99/2 96/79/2 99/94/2
f 99/94/2 98/101/2 97/95/2
f 97/95/2 85/108/2 87/96/2
f 85/108/2 84/98/2 87/96/2
f 84/98/2 86/100/2 87/96/2
f 87/96/2 90/102/2 95/99/2
f 90/102/2 91/105/2 95/99/2
f 91/105/2 92/107/2 95/99/2
f 95/99/2 99/94/2 87/96/2
f 79/91/6 95/99/6 94/97/6
f 70/92/13 86/100/13 84/98/13
f 80/80/7 96/79/7 95/99/7
f 71/93/14 87/96/14 86/100/14
f 81/88/10 97/95/10 98/101/10
f 72/83/15 88/103/15 87/96/15
f 82/64/9 98/101/9 99/94/9
f 73/81/18 89/104/18 90/102/18
f 74/82/19 90/102/19 88/103/19
f 75/84/17 91/105/17 89/104/17
f 77/85/16 93/106/16 91/105/16
f 76/86/4 92/107/4 93/106/4
f 69/87/11 85/108/11 97/95/11
f 78/89/5 94/97/5 92/107/5
f 68/90/12 84/98/12 85/108/12
