# Blender v2.80 (sub 75) OBJ File: 'bedSingle.blend'
# www.blender.org
mtllib bedSingle.mtl
o bedSingle
v 3.167158 1.568001 1.350000
v 3.167158 1.568001 0.750000
v -2.832842 1.567999 0.749999
v -2.832842 1.567999 1.349999
v 3.167159 -1.521999 0.750000
v 3.167159 -1.521999 1.350000
v -2.832841 -1.522001 1.349999
v -2.832841 -1.522001 0.749999
v -2.832841 -1.672001 0.749999
v 3.317159 -1.671999 0.750000
v 3.317158 1.718000 0.750000
v -2.832842 1.717998 0.749999
v -2.832842 1.717998 2.249999
v -2.832841 -1.672001 2.249999
v 3.317158 1.718000 0.300000
v -3.432842 1.717998 0.299999
v -3.432843 1.717998 2.249999
v 3.317159 -1.671999 0.300000
v 3.317159 -1.551999 0.300000
v 3.317158 -0.921999 0.300000
v 3.317158 0.968001 0.300000
v 3.317158 1.598001 0.300000
v -3.432841 -1.672001 0.299999
v 2.867159 -1.551999 0.300000
v -3.432841 -1.552001 0.299999
v -2.832841 -1.552001 0.299999
v 2.867159 -0.921999 0.300000
v -2.832841 -0.922001 0.299999
v -3.432842 -0.922001 0.299999
v 2.867158 0.968001 0.300000
v -3.432842 0.967999 0.299999
v -2.832842 0.967999 0.299999
v 2.867158 1.598001 0.300000
v -2.832842 1.597999 0.299999
v -3.432842 1.597999 0.299999
v -3.432842 -1.672001 2.249999
v 3.317158 -0.921999 0.000000
v 3.317159 -1.551999 0.000000
v 2.867159 -1.551999 -0.000000
v 2.867159 -0.921999 -0.000000
v 3.317158 0.968001 0.000000
v 2.867158 0.968001 -0.000000
v -2.832841 -0.922001 -0.000001
v -3.432842 -0.922001 -0.000001
v -2.832841 -1.552001 -0.000001
v -3.432841 -1.552001 -0.000001
v 3.317158 1.598001 0.000000
v 2.867158 1.598001 -0.000000
v -2.832842 0.967999 -0.000001
v -3.432842 0.967999 -0.000001
v -2.832842 1.597999 -0.000001
v -3.432842 1.597999 -0.000001
v -1.612303 -1.522001 1.349999
v -1.612304 1.568000 1.349999
v 3.167159 1.568001 1.350000
v 3.167160 -1.522000 1.350000
v 3.167160 -1.522000 1.500000
v 3.257430 -1.630000 1.350000
v 3.257430 1.676001 1.350000
v 3.167159 1.568001 1.500000
v -0.878930 1.568000 0.899999
v -0.878930 1.676001 0.899999
v 3.257430 1.676001 0.900000
v 3.167159 1.568001 0.900000
v 3.257431 -1.630000 0.900000
v 3.167160 -1.522000 0.900000
v -0.878929 -1.630000 0.899999
v -0.878929 -1.522000 0.899999
v -1.612303 -1.522001 0.899999
v -1.612304 1.568000 0.899999
v -0.878929 -1.630000 1.349999
v -0.878929 -1.522000 1.499999
v -0.878930 1.568000 1.499999
v -0.878930 1.676001 1.349999
v -1.612303 -1.552000 1.559999
v -1.612304 1.598000 1.559999
v -1.612304 1.736000 0.899999
v -1.612305 1.736000 1.379999
v -1.612303 -1.690000 0.899999
v -1.612303 -1.690000 1.379999
v -0.878930 1.736000 0.899999
v -0.878929 -1.552000 1.559999
v -0.878930 1.598000 1.559999
v -0.878930 1.736000 1.379999
v -0.878929 -1.690000 0.899999
v -0.878929 -1.690000 1.379999
v -1.782034 0.792799 1.588107
v -2.663033 0.792799 1.699402
v -2.663032 -0.716801 1.699402
v -1.782034 -0.716801 1.588107
v -2.693113 -0.716801 1.461295
v -2.693114 0.792799 1.461295
v -1.812114 0.792799 1.349999
v -1.812114 -0.716801 1.349999
v -2.832841 -0.716801 1.599901
v -2.832842 0.792799 1.599901
v -1.797074 -0.982001 1.469053
v -2.678072 -0.982001 1.580349
v -1.642305 0.792799 1.449501
v -1.642304 -0.716801 1.449501
v -2.678073 1.058000 1.580349
v -1.797075 1.058000 1.469053
vt 0.984252 8.858268
vt 0.984252 4.921260
vt 40.354328 4.921260
vt 40.354328 8.858268
vt -0.984252 4.921260
vt -0.984252 8.858268
vt -40.354328 8.858268
vt -40.354328 4.921260
vt 36.535431 0.984252
vt 36.535431 40.354328
vt 16.259840 40.354328
vt 36.535431 4.921260
vt 36.535431 8.858268
vt 16.259840 8.858268
vt 16.259840 0.984252
vt 16.259840 4.921260
vt -31.732281 0.787402
vt -31.338579 3.543307
vt -72.677162 3.543307
vt -72.283463 0.787402
vt -72.283463 -5.118110
vt -74.488190 -5.118110
vt -74.488190 1.181102
vt -31.732281 -5.118110
vt -29.527559 -5.118110
vt -29.527559 1.181102
vt -7.319192 73.700790
vt 2.305140 74.488190
vt -7.319192 74.488190
vt -7.319192 72.283463
vt 2.305140 72.283463
vt -2.305140 72.677162
vt -2.305140 31.338579
vt 7.319192 31.338579
vt 7.319192 72.677162
vt -7.319192 -41.407089
vt -7.319192 -44.383629
vt 2.305140 -44.383629
vt 2.305140 -41.407089
vt -7.319192 1.181102
vt -7.319192 -5.118110
vt 2.305140 -5.118110
vt 2.305140 1.181102
vt -2.305140 -5.118110
vt 7.319192 -5.118110
vt 7.319192 1.181102
vt -2.305140 1.181102
vt -2.305140 18.902830
vt 7.319192 18.902830
vt 7.319192 21.879370
vt -2.305140 21.879370
vt 29.527559 1.181102
vt 29.527559 -5.118110
vt 30.314960 -5.118110
vt 30.314960 0.787402
vt 31.338579 3.543307
vt 31.732281 2.755906
vt 72.677162 3.543307
vt 72.283463 2.755906
vt 73.700790 0.787402
vt 74.488190 1.181102
vt 73.700790 -5.118110
vt 74.488190 -5.118110
vt 2.305140 29.527559
vt 2.305140 31.732281
vt -7.319192 31.732281
vt -7.319192 30.314960
vt -7.319192 29.527559
vt 13.700790 13.700790
vt 2.047244 13.700790
vt 2.047244 2.047244
vt 13.700790 2.047244
vt -2.047244 2.047244
vt -2.047244 13.700790
vt -13.700790 13.700790
vt -13.700790 2.047244
vt -2.047244 2.400436
vt -13.700790 2.400436
vt -13.700790 -0.182433
vt -2.047244 -0.182433
vt -13.700790 4.983305
vt -2.047244 4.983305
vt 13.700790 2.400436
vt 2.047244 2.400436
vt 2.047244 -0.182433
vt 13.700790 -0.182433
vt 13.700790 -10.081830
vt 13.700790 -7.498962
vt 2.047244 -7.498962
vt 2.047244 -10.081830
vt -2.047244 -10.081830
vt -2.047244 -7.498962
vt -13.700790 -7.498962
vt -13.700790 -10.081830
vt -13.700790 12.299830
vt -2.047244 12.299830
vt -2.047244 14.882700
vt -13.700790 14.882700
vt 2.047244 4.983305
vt 13.700790 4.983305
vt 2.047244 12.299830
vt 13.700790 12.299830
vt 13.700790 14.882700
vt 2.047244 14.882700
vt -2.047244 2.362205
vt -0.000000 3.937008
vt -2.047244 5.511811
vt -13.700790 2.362205
vt -13.700790 5.511811
vt -15.748030 3.937008
vt -13.700790 2.362205
vt -2.047244 2.362205
vt 0.000000 3.937008
vt -15.748030 3.937008
vt -2.047244 5.511811
vt -13.700790 5.511811
vt 2.047244 5.511811
vt 0.000000 3.937008
vt 2.047244 2.362205
vt 13.700790 2.362205
vt 13.700790 5.511811
vt 15.748030 3.937008
vt 0.000000 3.937008
vt 2.047244 2.362205
vt 13.700790 2.362205
vt 15.748030 3.937008
vt 2.047244 5.511811
vt 13.700790 5.511811
vt 1.447620 1.918784
vt -1.447620 1.918784
vt 0.000000 -0.220283
vt -1.447620 3.878146
vt 1.447620 3.878146
vt 0.000000 6.017214
vt -9.687920 -3.657863
vt -11.135540 -1.518796
vt -12.583160 -3.657863
vt -11.135540 7.315726
vt -9.687920 9.454794
vt -12.583160 9.454794
vt 1.447620 -11.193870
vt -0.000000 -9.054806
vt -1.447620 -11.193870
vt -0.000000 14.851740
vt 1.447620 16.990801
vt -1.447620 16.990801
vt -0.000000 2.047244
vt 0.000000 13.700790
vt -2.047244 15.748030
vt -2.047244 0.000000
vt -13.700790 0.000000
vt -13.700790 15.748030
vt -15.748030 13.700790
vt -15.748030 2.047244
vt 11.135540 -1.518796
vt 9.687920 -3.657863
vt 12.583160 -3.657863
vt 9.687920 9.454794
vt 11.135540 7.315726
vt 12.583160 9.454794
vt 15.275590 40.354328
vt 16.259840 0.984252
vt 16.259840 40.354328
vt 37.519680 4.921260
vt 37.519680 14.763780
vt 36.535431 8.858268
vt 15.275590 14.763780
vt 16.259840 8.858268
vt 16.259840 4.921260
vt 15.275590 4.921260
vt 0.000000 4.921260
vt 0.000000 1.968504
vt 44.291340 1.968504
vt 40.354328 4.921260
vt 40.354328 14.763780
vt 44.291340 14.763780
vt 15.275590 4.921260
vt 15.275590 1.968504
vt 16.062990 1.968504
vt 37.519680 1.968504
vt 37.519680 4.921260
vt -16.062990 44.291340
vt -16.062990 40.354328
vt -16.062990 2.952756
vt -20.196850 40.354328
vt -20.196850 2.952756
vt -20.196850 44.291340
vt -32.598431 2.952756
vt -32.598431 0.000000
vt -32.598431 40.354328
vt -36.732281 40.354328
vt -36.732281 2.952756
vt -37.519680 -0.000000
vt -36.732281 0.000000
vt -36.732281 44.291340
vt -40.354328 4.921260
vt -40.354328 14.763780
vt -44.291340 14.763780
vt -44.291340 1.968504
vt -0.000000 1.968504
vt -0.000000 4.921260
vt 15.275590 44.291340
vt 15.275590 40.354328
vt 37.519680 40.354328
vt -15.275590 14.763780
vt -20.196850 1.968504
vt -16.062990 1.968504
vt -36.732281 1.968504
vt -32.598431 1.968504
vt -37.519680 1.968504
vt 15.275590 0.000000
vt 37.519680 -0.000000
vt 36.535431 0.984252
vt 36.535431 40.354328
vt 37.519680 40.354328
vt 36.535431 4.921260
vt 20.196850 1.968504
vt 32.598431 1.968504
vt 36.732281 1.968504
vt -16.062990 0.000000
vt -15.275590 0.000000
vt -15.275590 44.291340
vt -20.196850 0.000000
vt -32.598431 44.291340
vt -37.519680 44.291340
vt 37.519680 44.291340
vt -15.275590 1.968504
vt -37.519680 14.763780
vt -20.196850 0.000000
vt -16.062990 0.000000
vt -16.062990 2.952756
vt -20.196850 2.952756
vt -0.000000 -0.000000
vt -0.000000 1.968504
vt -2.952756 1.968504
vt 44.291340 0.000000
vt 44.291340 1.968504
vt 40.354328 1.968504
vt -40.354328 0.000000
vt -40.354328 1.968504
vt -44.291340 1.968504
vt -44.291340 0.000000
vt -36.732281 0.000000
vt -32.598431 0.000000
vt -32.598431 2.952756
vt -36.732281 2.952756
vt -40.354328 -0.000000
vt -40.354328 1.968504
vt -44.291340 1.968504
vt 36.732281 0.000000
vt -20.196850 40.354328
vt -16.062990 40.354328
vt -16.062990 44.291340
vt -20.196850 44.291340
vt -0.000000 0.000000
vt -0.000000 1.968504
vt -2.952756 1.968504
vt -2.952756 0.000000
vt 20.196850 0.000000
vt 20.196850 1.968504
vt 16.062990 1.968504
vt -32.598431 44.291340
vt -36.732281 44.291340
vt -36.732281 40.354328
vt 40.354328 1.968504
vt 40.354328 -0.000000
vt 44.291340 -0.000000
vt 0.000000 1.968504
vt 0.000000 0.000000
vt 2.952756 0.000000
vt 2.952756 1.968504
vt -2.952756 -0.000000
vt 40.354328 0.000000
vt 16.062990 0.000000
vt 20.196850 0.000000
vt -20.196850 0.000000
vt -16.062990 0.000000
vt -44.291340 -0.000000
vt -36.732281 0.000000
vt -32.598431 0.000000
vt -32.598431 1.968504
vt -36.732281 1.968504
vt 32.598431 1.968504
vt 32.598431 0.000000
vt 36.732281 0.000000
vt 36.732281 1.968504
vt 0.000000 1.968504
vt 0.000000 -0.000000
vt 2.952756 -0.000000
vt 2.952756 1.968504
vt 32.598431 0.000000
vt -36.732281 0.000000
vt -32.598431 0.000000
vt 16.062990 0.000000
vt -32.598431 40.354328
vt 44.291340 1.968504
vt -20.196850 0.000000
vt -16.062990 0.000000
vt -16.062990 1.968504
vt -20.196850 1.968504
vt 2.305140 31.732281
vt 2.305140 72.283463
vt -60.417469 72.283463
vt -60.417469 31.732281
vt 31.732281 -28.791929
vt 30.314960 -31.089411
vt 73.700790 -31.089411
vt 72.283463 -28.791929
vt -61.602119 73.700790
vt -60.417469 72.283463
vt -61.602119 30.314960
vt -60.417469 31.732281
vt -7.319192 -5.118110
vt 2.305140 -5.118110
vt 2.305140 0.787402
vt -60.417469 0.787402
vt -60.417469 -5.118110
vt -31.732281 -5.118110
vt -31.732281 0.787402
vt -72.283463 0.787402
vt -72.283463 -5.118110
vt 30.314960 0.787402
vt 30.314960 -5.118110
vt 73.700790 -5.118110
vt 73.700790 0.787402
vt 7.319192 -5.118110
vt 60.417469 -5.118110
vt 60.417469 0.787402
vt -2.305140 -5.118110
vt -2.305140 0.787402
vt 7.319192 -5.118110
vt 61.602119 -5.118110
vt 61.602119 0.787402
vt 7.319192 0.787402
vt 7.319192 18.352180
vt 61.602119 18.352180
vt 60.417469 20.777840
vt 7.319192 20.777840
vt 7.319192 72.283463
vt 7.319192 31.732281
vt 60.417469 31.732281
vt 60.417469 72.283463
vt -60.417469 -39.999062
vt -61.602119 -42.424709
vt -7.319192 -42.424709
vt -7.319192 -39.999062
vt -61.602119 0.787402
vt -61.602119 -5.118110
vt -7.319192 -5.118110
vt -7.319192 0.787402
vn -0.0000 1.0000 0.0000
vn 0.0000 -1.0000 0.0000
vn -0.0000 -0.0000 1.0000
vn 1.0000 0.0000 0.0000
vn -1.0000 -0.0000 -0.0000
vn 0.0000 0.0000 -1.0000
vn -0.0000 0.7936 0.6084
vn 0.0000 -0.7936 0.6084
vn 0.1253 0.0000 0.9921
vn -0.1253 -0.0000 -0.9921
vn -0.7043 -0.0000 -0.7100
vn -0.5056 -0.0000 0.8628
vn -0.0994 -0.6097 -0.7864
vn -0.0993 -0.6097 -0.7864
vn 0.7042 0.0000 0.7100
vn 0.0994 0.6097 0.7864
vn 0.0993 0.6097 0.7864
vn -0.0993 0.6097 -0.7864
vn -0.0994 0.6097 -0.7864
vn 0.0993 -0.6097 0.7864
vn 0.0994 -0.6097 0.7864
vn 0.5056 0.0000 -0.8628
vn -0.9921 -0.0000 0.1253
vn 0.9921 -0.0000 -0.1253
vn -0.6013 -0.5206 -0.6062
vn -0.4317 -0.5206 0.7367
vn -0.4317 0.5206 0.7367
vn -0.6013 0.5206 -0.6062
vn 0.6013 0.5206 0.6062
vn 0.4317 0.5206 -0.7367
vn 0.6013 -0.5206 0.6062
vn 0.4317 -0.5206 -0.7367
vn 0.8049 0.0260 -0.5928
vn 0.0000 0.8944 -0.4473
vn 0.0000 0.0002 -1.0000
vn 0.8568 0.0000 0.5156
vn 0.0000 -0.8115 0.5843
vn -0.0000 0.8115 0.5843
usemtl carpetWhite
s 1
f 1/1/1 2/2/1 3/3/1
f 3/3/1 4/4/1 1/1/1
f 5/5/2 6/6/2 7/7/2
f 7/7/2 8/8/2 5/5/2
f 1/9/3 4/10/3 7/11/3
f 2/12/4 1/13/4 6/14/4
f 7/11/3 6/15/3 1/9/3
f 6/14/4 5/16/4 2/12/4
f 53/17/5 75/18/5 76/19/5
f 76/19/5 54/20/5 53/17/5
f 76/19/5 70/21/5 54/20/5
f 76/19/5 77/22/5 70/21/5
f 76/19/5 78/23/5 77/22/5
f 75/18/5 53/17/5 69/24/5
f 75/18/5 69/24/5 79/25/5
f 79/25/5 80/26/5 75/18/5
f 62/27/6 77/28/6 81/29/6
f 77/28/6 62/27/6 61/30/6
f 61/30/6 70/31/6 77/28/6
f 76/32/3 75/33/3 82/34/3
f 82/34/3 83/35/3 76/32/3
f 83/36/7 84/37/7 78/38/7
f 78/38/7 76/39/7 83/36/7
f 84/40/1 81/41/1 77/42/1
f 77/42/1 78/43/1 84/40/1
f 79/44/2 85/45/2 86/46/2
f 86/46/2 80/47/2 79/44/2
f 80/48/8 86/49/8 82/50/8
f 82/50/8 75/51/8 80/48/8
f 86/52/4 85/53/4 67/54/4
f 67/54/4 71/55/4 86/52/4
f 71/55/4 82/56/4 86/52/4
f 71/55/4 72/57/4 82/56/4
f 72/57/4 83/58/4 82/56/4
f 72/57/4 73/59/4 83/58/4
f 73/59/4 74/60/4 83/58/4
f 74/60/4 84/61/4 83/58/4
f 74/60/4 62/62/4 84/61/4
f 62/62/4 81/63/4 84/61/4
f 79/64/6 69/65/6 68/66/6
f 68/66/6 67/67/6 79/64/6
f 67/67/6 85/68/6 79/64/6
f 87/69/9 88/70/9 89/71/9
f 89/71/9 90/72/9 87/69/9
f 91/73/10 92/74/10 93/75/10
f 93/75/10 94/76/10 91/73/10
f 95/77/11 96/78/11 92/79/11
f 92/79/11 91/80/11 95/77/11
f 88/81/12 96/78/12 95/77/12
f 95/77/12 89/82/12 88/81/12
f 97/83/13 98/84/14 91/85/14
f 91/85/14 94/86/14 97/83/13
f 99/87/15 87/88/15 90/89/15
f 90/89/15 100/90/15 99/87/15
f 101/91/16 88/92/17 87/93/17
f 87/93/17 102/94/17 101/91/16
f 93/95/18 92/96/18 101/97/18
f 101/97/18 102/98/19 93/95/18
f 89/99/20 98/84/21 97/83/20
f 97/83/20 90/100/20 89/99/20
f 94/101/22 93/102/22 99/103/22
f 99/103/22 100/104/22 94/101/22
f 91/105/23 98/106/23 89/107/23
f 89/107/23 92/108/23 91/105/23
f 89/107/23 88/109/23 92/108/23
f 88/109/23 101/110/23 92/108/23
f 93/111/1 92/112/1 96/113/1
f 96/113/1 99/114/1 93/111/1
f 96/113/1 88/115/1 99/114/1
f 88/115/1 87/116/1 99/114/1
f 90/117/24 97/118/24 94/119/24
f 94/119/24 93/120/24 90/117/24
f 93/120/24 87/121/24 90/117/24
f 93/120/24 102/122/24 87/121/24
f 95/123/2 91/124/2 94/125/2
f 94/125/2 100/126/2 95/123/2
f 100/126/2 89/127/2 95/123/2
f 100/126/2 90/128/2 89/127/2
f 98/129/25 95/130/25 91/131/25
f 95/132/26 98/133/26 89/134/26
f 96/135/27 88/136/27 101/137/27
f 92/138/28 96/139/28 101/140/28
f 102/141/29 87/142/29 99/143/29
f 93/144/30 102/145/30 99/146/30
f 95/147/10 96/148/10 101/149/10
f 101/149/10 98/150/10 95/147/10
f 101/149/10 97/151/10 98/150/10
f 101/149/10 102/152/10 97/151/10
f 102/152/10 99/153/10 97/151/10
f 99/153/10 100/154/10 97/151/10
f 90/155/31 97/156/31 100/157/31
f 97/158/32 94/159/32 100/160/32
usemtl wood
f 9/161/3 5/162/3 8/163/3
f 12/164/4 13/165/4 4/166/4
f 13/165/4 14/167/4 4/166/4
f 7/168/4 4/166/4 14/167/4
f 8/169/4 7/168/4 14/167/4
f 14/167/4 9/170/4 8/169/4
f 11/171/1 15/172/1 16/173/1
f 16/173/1 12/174/1 11/171/1
f 16/173/1 13/175/1 12/174/1
f 16/173/1 17/176/1 13/175/1
f 10/177/4 18/178/4 19/179/4
f 15/180/4 11/181/4 10/177/4
f 25/182/6 26/183/33 24/184/6
f 26/183/33 28/185/6 27/186/6
f 29/187/6 30/188/6 21/189/6
f 32/190/34 34/191/6 33/192/6
f 15/193/6 22/194/6 33/192/6
f 34/191/6 35/195/6 15/193/6
f 9/196/2 14/197/2 36/198/2
f 9/196/2 23/199/2 18/200/2
f 18/200/2 10/201/2 9/196/2
f 36/202/3 14/203/3 13/204/3
f 36/205/5 29/206/5 25/207/5
f 36/205/5 35/208/5 31/209/5
f 36/205/5 16/210/5 35/208/5
f 5/162/3 9/161/3 10/211/3
f 10/211/3 11/212/3 5/162/3
f 11/212/3 2/213/3 5/162/3
f 11/212/3 3/214/3 2/213/3
f 11/212/3 12/215/3 3/214/3
f 4/166/4 3/216/4 12/164/4
f 19/179/4 20/217/4 10/177/4
f 20/217/4 21/218/4 10/177/4
f 21/218/4 22/219/4 10/177/4
f 22/219/4 15/180/4 10/177/4
f 19/220/6 18/221/6 23/222/6
f 23/222/6 24/184/6 19/220/6
f 23/222/6 25/182/6 24/184/6
f 27/186/6 24/184/6 26/183/33
f 27/186/6 28/185/6 21/189/6
f 21/189/6 20/223/6 27/186/6
f 28/185/6 29/187/6 21/189/6
f 29/187/6 31/224/35 30/188/6
f 31/224/35 32/190/34 30/188/6
f 33/192/6 30/188/6 32/190/34
f 33/192/6 34/191/6 15/193/6
f 35/195/6 16/225/6 15/193/6
f 9/196/2 36/198/2 23/199/2
f 13/204/3 17/226/3 36/202/3
f 25/207/5 23/227/5 36/205/5
f 36/205/5 31/209/5 29/206/5
f 36/205/5 17/228/5 16/210/5
usemtl metal
f 37/229/6 38/230/6 39/231/6
f 39/231/6 40/232/6 37/229/6
f 41/233/2 21/234/2 30/235/2
f 44/236/1 29/237/1 28/238/1
f 45/239/2 26/240/2 25/241/2
f 25/241/2 46/242/2 45/239/2
f 47/243/6 41/244/6 42/245/6
f 42/245/6 48/246/6 47/243/6
f 49/247/2 32/248/2 31/249/2
f 47/250/4 22/219/4 21/218/4
f 43/251/6 45/252/6 46/253/6
f 46/253/6 44/254/6 43/251/6
f 38/255/2 19/256/2 24/257/2
f 24/257/2 39/258/2 38/255/2
f 43/259/4 28/260/4 26/261/4
f 50/262/6 52/263/6 51/264/6
f 34/265/1 51/266/1 52/267/1
f 20/268/1 37/269/1 40/270/1
f 40/270/1 27/271/1 20/268/1
f 30/235/2 42/272/2 41/233/2
f 28/238/1 43/273/1 44/236/1
f 19/179/4 38/274/4 37/275/4
f 37/275/4 20/217/4 19/179/4
f 44/276/5 46/277/5 25/207/5
f 25/207/5 29/206/5 44/276/5
f 31/249/2 50/278/2 49/247/2
f 48/279/5 42/280/5 30/281/5
f 30/281/5 33/282/5 48/279/5
f 32/283/4 49/284/4 51/285/4
f 51/285/4 34/286/4 32/283/4
f 22/287/1 47/288/1 48/289/1
f 48/289/1 33/290/1 22/287/1
f 21/218/4 41/291/4 47/250/4
f 52/292/5 50/293/5 31/209/5
f 31/209/5 35/208/5 52/292/5
f 26/261/4 45/294/4 43/259/4
f 51/264/6 49/295/6 50/262/6
f 52/267/1 35/296/1 34/265/1
f 40/297/5 39/298/5 24/299/5
f 24/299/5 27/300/5 40/297/5
usemtl carpet
f 53/301/6 54/302/6 55/303/6
f 55/303/6 56/304/6 53/301/6
f 57/305/36 58/306/36 59/307/36
f 59/307/36 60/308/36 57/305/36
f 61/30/6 62/27/6 63/309/6
f 63/309/6 64/310/6 61/30/6
f 63/309/6 65/311/6 64/310/6
f 66/312/6 64/310/6 65/311/6
f 66/312/6 65/311/6 67/67/6
f 67/67/6 68/66/6 66/312/6
f 68/313/1 69/314/1 53/315/1
f 68/313/1 53/315/1 56/316/1
f 56/316/1 66/317/1 68/313/1
f 66/318/5 56/319/5 55/320/5
f 55/320/5 64/321/5 66/318/5
f 58/322/4 65/323/4 63/324/4
f 63/324/4 59/325/4 58/322/4
f 61/326/2 64/327/2 55/328/2
f 55/328/2 70/329/2 61/326/2
f 55/328/2 54/330/2 70/329/2
f 67/331/2 65/332/2 58/333/2
f 58/333/2 71/334/2 67/331/2
f 71/335/37 58/336/37 57/337/37
f 57/337/37 72/338/37 71/335/37
f 73/339/3 72/340/3 57/341/3
f 57/341/3 60/342/3 73/339/3
f 60/343/38 59/344/38 74/345/38
f 74/345/38 73/346/38 60/343/38
f 59/347/1 63/348/1 62/349/1
f 62/349/1 74/350/1 59/347/1
