# Blender v2.77 (sub 0) OBJ File: 'chair.blend'
# www.blender.org
mtllib chair.mtl
o polySurface105
v -1.919381 4.376863 1.623041
v 2.803676 4.612700 2.029666
v -1.912420 4.531981 1.623041
v 2.801950 4.779475 2.029666
v 2.801951 4.779476 -2.072680
v 2.803676 4.612700 -2.072679
v -1.912420 4.531981 -1.657998
v -1.919381 4.376864 -1.657998
v -2.195142 6.627289 1.456028
v -2.195142 6.627289 0.676211
v -2.312399 7.047043 1.456028
v -2.330792 7.112886 0.676211
v -2.432530 7.084466 0.676211
v -2.296879 6.598869 0.676211
v -2.414136 7.018622 1.456028
v -2.296879 6.598869 1.456028
v -2.442876 7.121503 0.000906
v -2.341139 7.149923 0.000906
v -2.296879 6.598869 0.000906
v -2.195142 6.627289 0.000906
v -2.330792 7.112887 -0.674398
v -2.195142 6.627290 -0.674398
v -2.312399 7.047044 -1.393745
v -2.195142 6.627290 -1.393745
v -2.432530 7.084467 -0.674398
v -2.414136 7.018623 -1.393745
v -2.296879 6.598870 -0.674398
v -2.296879 6.598870 -1.393745
v -2.443785 7.812181 1.480437
v -2.443785 7.812181 0.676211
v -2.561042 8.231936 1.480437
v -2.579435 8.297779 0.676212
v -2.681172 8.269359 0.676212
v -2.545522 7.783762 0.676211
v -2.662779 8.203515 1.480437
v -2.545522 7.783762 1.480437
v -2.589781 8.334816 0.000906
v -2.691518 8.306396 0.000906
v -2.545522 7.783762 0.000906
v -2.443785 7.812181 0.000906
v -2.579435 8.297780 -0.674397
v -2.443785 7.812182 -0.674398
v -2.561042 8.231936 -1.376595
v -2.443785 7.812182 -1.376595
v -2.681172 8.269360 -0.674397
v -2.662779 8.203516 -1.376595
v -2.545522 7.783763 -0.674398
v -2.545522 7.783763 -1.376595
v -2.850855 9.500269 -0.674397
v -2.715205 9.014671 -0.674397
v -2.832462 9.434425 -1.393744
v -2.715205 9.014671 -1.393744
v -2.952592 9.471848 -0.674397
v -2.934199 9.406005 -1.393744
v -2.816942 8.986252 -0.674397
v -2.816942 8.986252 -1.393744
v -2.962938 9.508884 0.000907
v -2.816942 8.986251 0.000906
v -2.832462 9.434424 1.446463
v -2.850855 9.500268 0.676212
v -2.934199 9.406004 1.446463
v -2.952592 9.471848 0.676212
v -2.715205 9.014670 1.446463
v -2.715205 9.014670 0.676212
v -2.816942 8.986251 0.676212
v -2.816942 8.986251 1.446463
v -2.861201 9.537305 0.000907
v -2.715205 9.014670 0.000906
v -1.620435 4.404708 1.454443
v -1.620435 4.404709 -1.497457
v -1.595544 3.906215 1.454443
v -1.595544 3.906215 -1.497457
v 2.429294 4.602472 -1.741557
v 2.454185 4.103980 -1.741557
v 2.429294 4.602471 1.698544
v 2.454185 4.103979 1.698544
v 2.654759 1.504783 -1.889204
v 2.654759 1.144108 -1.889204
v -1.766633 1.467124 -1.651865
v -1.799174 1.106449 -1.651865
v -1.799174 1.106449 -1.422401
v 2.654759 1.144108 -1.659740
v -1.766633 1.467124 -1.422401
v 2.654759 1.504783 -1.659740
v -1.552150 4.487154 -1.368693
v -1.533314 3.850411 -1.368693
v -1.552150 4.487155 -1.684743
v -1.533314 3.850412 -1.684743
v -1.999527 3.850412 -1.684743
v -1.999527 4.487155 -1.684743
v -1.999527 4.487154 -1.368693
v -1.999527 3.850411 -1.368693
v -3.078716 9.544528 -1.368692
v -2.758027 9.610704 -1.368692
v -3.078716 9.544528 -1.684742
v -2.758027 9.610704 -1.684742
v -2.162008 6.955029 -1.368693
v -2.516534 6.955029 -1.368693
v -2.162008 6.955029 -1.684743
v -2.516534 6.955029 -1.684743
v -1.660110 2.460928 -1.368693
v -2.036153 2.456867 -1.368693
v -2.036153 2.456868 -1.684744
v -1.660110 2.460929 -1.684744
v -2.111103 1.048648 -1.368694
v -2.111103 1.048648 -1.684744
v -2.163823 0.010184 -1.368694
v -2.163823 0.010184 -1.684744
v -1.788242 1.056814 -1.368694
v -1.856097 0.021377 -1.368694
v -1.788242 1.056814 -1.684744
v -1.856097 0.021377 -1.684744
v 2.654759 1.504782 1.936956
v -1.766633 1.467123 1.699617
v 2.654759 1.144107 1.936956
v -1.799174 1.106448 1.699617
v -1.799174 1.106448 1.470153
v -1.766633 1.467123 1.470153
v 2.654759 1.144107 1.707492
v 2.654759 1.504782 1.707492
v -1.552150 4.487154 1.416447
v -1.552150 4.487154 1.732497
v -1.533314 3.850411 1.416447
v -1.533314 3.850411 1.732497
v -1.999527 3.850411 1.732497
v -1.999527 4.487154 1.732497
v -1.999527 4.487154 1.416447
v -1.999527 3.850411 1.416447
v -3.078716 9.544527 1.416448
v -3.078716 9.544527 1.732498
v -2.758027 9.610703 1.416448
v -2.758027 9.610703 1.732498
v -2.162008 6.955029 1.416447
v -2.516534 6.955029 1.416447
v -2.162008 6.955029 1.732497
v -2.516534 6.955029 1.732497
v -1.660110 2.460928 1.416446
v -2.036153 2.456867 1.416446
v -2.036153 2.456867 1.732497
v -1.660110 2.460928 1.732497
v -2.111103 1.048647 1.416446
v -2.163823 0.010183 1.416446
v -2.111103 1.048647 1.732497
v -2.163823 0.010183 1.732497
v -1.788242 1.056813 1.416446
v -1.856097 0.021376 1.416446
v -1.788242 1.056813 1.732497
v -1.856097 0.021376 1.732497
v 2.922712 0.007325 -1.622760
v 2.918845 0.011173 -1.932660
v 2.791932 4.718449 -1.620206
v 2.788065 4.722296 -1.930105
v 2.435377 4.711306 -1.925841
v 2.620130 0.001865 -1.929048
v 2.439244 4.707458 -1.615942
v 2.623997 -0.001982 -1.619149
v 2.922712 0.007324 1.670513
v 2.791932 4.718448 1.667961
v 2.918845 0.011172 1.980412
v 2.788065 4.722295 1.977860
v 2.435377 4.711305 1.973596
v 2.620130 0.001864 1.976800
v 2.439244 4.707458 1.663697
v 2.623997 -0.001983 1.666901
vt 0.7372 0.4357
vt 0.7096 0.4358
vt 0.7307 0.0172
vt 0.7032 0.0173
vt 0.8635 0.0165
vt 0.8604 0.4351
vt 0.8322 0.0164
vt 0.8338 0.4350
vt 0.8211 0.0164
vt 0.8227 0.4350
vt 0.7935 0.0169
vt 0.7952 0.4354
vt 0.7791 0.0169
vt 0.7808 0.4354
vt 0.7478 0.0172
vt 0.7542 0.4357
vt 0.7372 0.4357
vt 0.7307 0.0172
vt 0.7096 0.4358
vt 0.7032 0.0173
vt 0.8635 0.0165
vt 0.8322 0.0164
vt 0.8604 0.4351
vt 0.8338 0.4350
vt 0.8211 0.0164
vt 0.7935 0.0169
vt 0.8227 0.4350
vt 0.7952 0.4354
vt 0.7791 0.0169
vt 0.7478 0.0172
vt 0.7808 0.4354
vt 0.7542 0.4357
vt 0.5041 0.9742
vt 0.4608 0.4857
vt 0.5199 0.9712
vt 0.4779 0.4835
vt 0.9191 0.4662
vt 0.4952 0.4662
vt 0.9191 0.4490
vt 0.4952 0.4489
vt 0.9550 0.4835
vt 0.9721 0.4858
vt 0.9121 0.9713
vt 0.9279 0.9742
vt 0.5372 0.9811
vt 0.8762 0.9811
vt 0.5372 0.9971
vt 0.8762 0.9971
vt 0.5372 0.9712
vt 0.4952 0.4835
vt 0.8762 0.9713
vt 0.9191 0.4835
vt 0.4511 0.2761
vt 0.4508 0.2122
vt 0.4912 0.2758
vt 0.4971 0.2120
vt 0.3710 0.2124
vt 0.4173 0.2122
vt 0.3776 0.2763
vt 0.4177 0.2761
vt 0.4291 0.2761
vt 0.4287 0.2122
vt 0.4388 0.2761
vt 0.4385 0.2122
vt 0.5182 0.2126
vt 0.5123 0.2767
vt 0.5085 0.2120
vt 0.5026 0.2758
vt 0.5214 0.1502
vt 0.5117 0.1502
vt 0.3673 0.1502
vt 0.4171 0.1502
vt 0.4382 0.1502
vt 0.4285 0.1502
vt 0.4505 0.1502
vt 0.5003 0.1502
vt 0.4970 0.0884
vt 0.4507 0.0881
vt 0.4913 0.0223
vt 0.4513 0.0220
vt 0.3709 0.0881
vt 0.3772 0.0220
vt 0.4173 0.0881
vt 0.4175 0.0220
vt 0.4290 0.0220
vt 0.4389 0.0220
vt 0.4287 0.0881
vt 0.4384 0.0881
vt 0.5181 0.0877
vt 0.5085 0.0884
vt 0.5124 0.0215
vt 0.5027 0.0223
vt 0.6443 0.2754
vt 0.6447 0.2116
vt 0.6851 0.2756
vt 0.6918 0.2118
vt 0.5595 0.2113
vt 0.6066 0.2116
vt 0.5655 0.2751
vt 0.6063 0.2753
vt 0.6313 0.2754
vt 0.6215 0.2753
vt 0.6317 0.2116
vt 0.6218 0.2116
vt 0.5389 0.2120
vt 0.5487 0.2113
vt 0.5448 0.2760
vt 0.5547 0.2751
vt 0.5356 0.1484
vt 0.5455 0.1484
vt 0.5563 0.1484
vt 0.6069 0.1485
vt 0.6319 0.1485
vt 0.6221 0.1485
vt 0.6449 0.1485
vt 0.6956 0.1486
vt 0.6920 0.0854
vt 0.6449 0.0854
vt 0.6855 0.0197
vt 0.6448 0.0198
vt 0.5598 0.0855
vt 0.5660 0.0199
vt 0.6069 0.0854
vt 0.6067 0.0198
vt 0.6220 0.0854
vt 0.6219 0.0198
vt 0.6319 0.0854
vt 0.6318 0.0198
vt 0.5551 0.0199
vt 0.5489 0.0855
vt 0.5453 0.0190
vt 0.5391 0.0848
vt 0.4671 0.2863
vt 0.4676 0.3330
vt 0.4004 0.2935
vt 0.4009 0.3339
vt 0.4683 0.4060
vt 0.4016 0.4006
vt 0.4677 0.3593
vt 0.4010 0.3602
vt 0.4676 0.3416
vt 0.4677 0.3514
vt 0.4009 0.3425
vt 0.4010 0.3523
vt 0.4676 0.4272
vt 0.4008 0.4218
vt 0.4683 0.4174
vt 0.4016 0.4120
vt 0.5306 0.4088
vt 0.5302 0.3587
vt 0.6559 0.4199
vt 0.5937 0.4262
vt 0.6549 0.4102
vt 0.5929 0.4165
vt 0.6548 0.3320
vt 0.5927 0.3321
vt 0.6547 0.2916
vt 0.5925 0.2853
vt 0.5929 0.4051
vt 0.5928 0.3584
vt 0.6549 0.3988
vt 0.6548 0.3583
vt 0.5306 0.4202
vt 0.5307 0.4300
vt 0.5301 0.3323
vt 0.5298 0.2821
vt 0.5301 0.3410
vt 0.5302 0.3508
vt 0.5928 0.3505
vt 0.5927 0.3407
vt 0.6548 0.3504
vt 0.6548 0.3406
vt 0.1803 0.8106
vt 0.1809 0.9789
vt 0.1459 0.8107
vt 0.1466 0.9790
vt 0.1776 0.0281
vt 0.1785 0.2712
vt 0.1432 0.0282
vt 0.1442 0.2713
vt 0.1785 0.2993
vt 0.1793 0.5094
vt 0.1442 0.2994
vt 0.1450 0.5095
vt 0.1793 0.5432
vt 0.1803 0.7862
vt 0.1450 0.5433
vt 0.1459 0.7863
vt 0.9599 0.0115
vt 0.9946 0.0115
vt 0.9636 0.4019
vt 0.9983 0.4050
vt 0.8993 0.4074
vt 0.8957 0.0139
vt 0.9340 0.4036
vt 0.9304 0.0132
vt 0.8950 0.4074
vt 0.8729 0.4061
vt 0.8913 0.0139
vt 0.8692 0.0126
vt 0.9365 0.4036
vt 0.9328 0.0132
vt 0.9585 0.4019
vt 0.9549 0.0115
vt 0.3782 0.5352
vt 0.3802 0.5962
vt 0.3480 0.5369
vt 0.3496 0.5957
vt 0.3367 0.5957
vt 0.2929 0.5946
vt 0.3351 0.5369
vt 0.2925 0.5330
vt 0.2795 0.5330
vt 0.2799 0.5946
vt 0.2490 0.5335
vt 0.2507 0.5952
vt 0.2359 0.5335
vt 0.2376 0.5952
vt 0.1938 0.5393
vt 0.1931 0.5973
vt 0.0176 0.5416
vt 0.0176 0.4221
vt 0.1354 0.5416
vt 0.1354 0.4221
vt 0.1975 0.2970
vt 0.2303 0.2890
vt 0.3628 0.2927
vt 0.3327 0.2943
vt 0.3198 0.2943
vt 0.2865 0.2882
vt 0.2735 0.2882
vt 0.2434 0.2890
vt 0.1907 0.0361
vt 0.2219 0.0348
vt 0.3525 0.0319
vt 0.3224 0.0331
vt 0.3095 0.0331
vt 0.2782 0.0339
vt 0.2652 0.0339
vt 0.2350 0.0348
vt 0.2033 0.7267
vt 0.2390 0.7282
vt 0.2521 0.7282
vt 0.2821 0.7280
vt 0.3307 0.7260
vt 0.2951 0.7280
vt 0.3436 0.7260
vt 0.3737 0.7273
vt 0.2522 0.8617
vt 0.2823 0.8618
vt 0.2512 0.9603
vt 0.2812 0.9606
vt 0.2084 0.8593
vt 0.2391 0.8617
vt 0.2089 0.9574
vt 0.2381 0.9603
vt 0.3388 0.8596
vt 0.3688 0.8606
vt 0.3362 0.9583
vt 0.3662 0.9591
vt 0.3259 0.8596
vt 0.3233 0.9583
vt 0.2953 0.8618
vt 0.2942 0.9606
vt 0.9599 0.0115
vt 0.9636 0.4019
vt 0.9946 0.0115
vt 0.9983 0.4050
vt 0.8993 0.4074
vt 0.9340 0.4036
vt 0.8957 0.0139
vt 0.9304 0.0132
vt 0.8950 0.4074
vt 0.8913 0.0139
vt 0.8729 0.4061
vt 0.8692 0.0126
vt 0.9365 0.4036
vt 0.9585 0.4019
vt 0.9328 0.0132
vt 0.9549 0.0115
vt 0.3782 0.5352
vt 0.3480 0.5369
vt 0.3802 0.5962
vt 0.3496 0.5957
vt 0.3367 0.5957
vt 0.3351 0.5369
vt 0.2929 0.5946
vt 0.2925 0.5330
vt 0.2795 0.5330
vt 0.2490 0.5335
vt 0.2799 0.5946
vt 0.2507 0.5952
vt 0.2359 0.5335
vt 0.1938 0.5393
vt 0.2376 0.5952
vt 0.1931 0.5973
vt 0.0176 0.5416
vt 0.1354 0.5416
vt 0.0176 0.4221
vt 0.1354 0.4221
vt 0.1975 0.2970
vt 0.2303 0.2890
vt 0.3628 0.2927
vt 0.3327 0.2943
vt 0.3198 0.2943
vt 0.2865 0.2882
vt 0.2735 0.2882
vt 0.2434 0.2890
vt 0.1907 0.0361
vt 0.2219 0.0348
vt 0.3525 0.0319
vt 0.3224 0.0331
vt 0.3095 0.0331
vt 0.2782 0.0339
vt 0.2652 0.0339
vt 0.2350 0.0348
vt 0.2033 0.7267
vt 0.2390 0.7282
vt 0.2521 0.7282
vt 0.2821 0.7280
vt 0.3307 0.7260
vt 0.2951 0.7280
vt 0.3436 0.7260
vt 0.3737 0.7273
vt 0.2522 0.8617
vt 0.2512 0.9603
vt 0.2823 0.8618
vt 0.2812 0.9606
vt 0.2084 0.8593
vt 0.2089 0.9574
vt 0.2391 0.8617
vt 0.2381 0.9603
vt 0.3388 0.8596
vt 0.3362 0.9583
vt 0.3688 0.8606
vt 0.3662 0.9591
vt 0.3259 0.8596
vt 0.2953 0.8618
vt 0.3233 0.9583
vt 0.2942 0.9606
vn 0.9995 0.0278 -0.0121
vn -0.0121 0.0002 -0.9999
vn -0.9992 -0.0392 0.0120
vn 0.0121 -0.0002 0.9999
vn 0.9995 0.0278 0.0121
vn -0.0121 0.0002 0.9999
vn -0.9992 -0.0392 -0.0120
vn 0.0121 -0.0002 -0.9999
vn -0.0860 0.0039 0.9963
vn -0.0859 -0.0008 0.9963
vn -0.0860 0.0038 0.9963
vn -0.0859 -0.0009 0.9963
vn 0.9999 0.0103 0.0000
vn -0.0876 -0.0009 -0.9962
vn -0.0876 -0.0008 -0.9962
vn -0.0877 0.0038 -0.9961
vn -0.0877 0.0039 -0.9961
vn -0.9990 0.0448 0.0000
vn -0.0524 0.9986 0.0000
vn 0.9631 0.2690 0.0000
vn -0.9631 -0.2690 0.0000
vn 0.2690 -0.9631 0.0000
vn -0.2683 0.9606 0.0731
vn -0.2680 0.9594 0.0873
vn -0.2683 0.9605 0.0732
vn -0.2691 0.9631 0.0000
vn -0.2683 0.9603 -0.0761
vn -0.2683 0.9603 -0.0762
vn -0.2678 0.9588 -0.0946
vn -0.2684 0.9606 0.0720
vn -0.2681 0.9597 0.0847
vn -0.2678 0.9586 -0.0969
vn -0.2683 0.9603 -0.0769
vn -0.2683 0.9603 -0.0763
vn -0.2680 0.9594 0.0884
vn -0.2683 0.9605 0.0736
vn -0.9988 -0.0499 -0.0000
vn -0.0600 -0.0030 -0.9982
vn 0.9988 0.0499 0.0000
vn -0.0600 -0.0030 0.9982
vn -0.0536 0.0000 -0.9986
vn -0.0536 0.0002 -0.9986
vn -0.0533 0.0046 -0.9986
vn -0.0533 0.0048 -0.9986
vn 0.0533 -0.0048 0.9986
vn 0.0536 -0.0002 0.9986
vn 0.0533 -0.0046 0.9986
vn 0.0536 0.0000 0.9986
vn 0.0085 -1.0000 0.0000
vn -0.0085 1.0000 0.0000
vn 0.9801 0.1985 0.0000
vn 0.9986 -0.0532 -0.0000
vn 0.0000 0.0000 -1.0000
vn -0.9864 -0.1642 -0.0000
vn -0.9998 0.0180 0.0000
vn -0.9864 -0.1643 -0.0000
vn 0.0000 -0.0000 1.0000
vn -0.2021 0.9794 0.0000
vn 0.9733 0.2295 0.0000
vn -0.9780 -0.2086 -0.0000
vn 0.9757 0.2190 0.0000
vn -0.9772 -0.2122 0.0000
vn -0.9992 0.0397 0.0000
vn 0.9959 -0.0909 -0.0000
vn -0.9987 0.0519 0.0000
vn -0.9986 0.0523 0.0000
vn -0.9987 0.0507 0.0000
vn 0.9968 -0.0801 -0.0000
vn 0.9968 -0.0800 -0.0000
vn 0.9979 -0.0654 0.0000
vn -0.0536 0.0000 0.9986
vn -0.0533 0.0046 0.9986
vn -0.0536 0.0002 0.9986
vn -0.0533 0.0048 0.9986
vn 0.0533 -0.0048 -0.9986
vn 0.0533 -0.0046 -0.9986
vn 0.0536 -0.0002 -0.9986
vn 0.0536 0.0000 -0.9986
usemtl blinn13SG
s off
f 149/1/1 150/2/1 151/3/1
f 151/3/1 150/2/1 152/4/1
f 152/5/2 150/6/2 153/7/2
f 153/7/2 150/6/2 154/8/2
f 153/9/3 154/10/3 155/11/3
f 155/11/3 154/10/3 156/12/3
f 155/13/4 156/14/4 151/15/4
f 151/15/4 156/14/4 149/16/4
f 157/17/5 158/18/5 159/19/5
f 158/18/5 160/20/5 159/19/5
f 160/21/6 161/22/6 159/23/6
f 161/22/6 162/24/6 159/23/6
f 161/25/7 163/26/7 162/27/7
f 163/26/7 164/28/7 162/27/7
f 163/29/8 158/30/8 164/31/8
f 158/30/8 157/32/8 164/31/8
s 1
f 1/33/9 2/34/10 3/35/11
f 3/35/11 2/34/10 4/36/12
f 5/37/13 4/38/13 6/39/13
f 6/39/13 4/38/13 2/40/13
f 5/41/14 6/42/15 7/43/16
f 7/43/16 6/42/15 8/44/17
f 3/45/18 7/46/18 1/47/18
f 1/47/18 7/46/18 8/48/18
f 3/49/19 4/50/19 7/51/19
f 7/51/19 4/50/19 5/52/19
f 9/53/20 10/54/20 11/55/20
f 11/55/20 10/54/20 12/56/20
f 13/57/21 14/58/21 15/59/21
f 15/59/21 14/58/21 16/60/21
f 16/61/22 14/62/22 9/63/22
f 9/63/22 14/62/22 10/64/22
f 13/65/23 15/66/24 12/67/25
f 12/67/25 15/66/24 11/68/24
f 17/69/26 13/65/23 18/70/26
f 18/70/26 13/65/23 12/67/25
f 17/71/21 19/72/21 13/57/21
f 13/57/21 19/72/21 14/58/21
f 10/64/22 14/62/22 20/73/22
f 20/73/22 14/62/22 19/74/22
f 10/54/20 20/75/20 12/56/20
f 12/56/20 20/75/20 18/76/20
f 21/77/20 22/78/20 23/79/20
f 23/79/20 22/78/20 24/80/20
f 25/81/21 26/82/21 27/83/21
f 27/83/21 26/82/21 28/84/21
f 28/85/22 24/86/22 27/87/22
f 27/87/22 24/86/22 22/88/22
f 25/89/27 21/90/28 26/91/29
f 26/91/29 21/90/28 23/92/29
f 17/69/26 18/70/26 25/89/27
f 25/89/27 18/70/26 21/90/28
f 17/71/21 25/81/21 19/72/21
f 19/72/21 25/81/21 27/83/21
f 22/88/22 20/73/22 27/87/22
f 27/87/22 20/73/22 19/74/22
f 18/76/20 20/75/20 21/77/20
f 21/77/20 20/75/20 22/78/20
f 29/93/20 30/94/20 31/95/20
f 31/95/20 30/94/20 32/96/20
f 33/97/21 34/98/21 35/99/21
f 35/99/21 34/98/21 36/100/21
f 29/101/22 36/102/22 30/103/22
f 30/103/22 36/102/22 34/104/22
f 32/105/30 33/106/30 31/107/31
f 31/107/31 33/106/30 35/108/31
f 37/109/26 38/110/26 32/105/30
f 32/105/30 38/110/26 33/106/30
f 38/111/21 39/112/21 33/97/21
f 33/97/21 39/112/21 34/98/21
f 40/113/22 30/103/22 39/114/22
f 39/114/22 30/103/22 34/104/22
f 30/94/20 40/115/20 32/96/20
f 32/96/20 40/115/20 37/116/20
f 41/117/20 42/118/20 43/119/20
f 43/119/20 42/118/20 44/120/20
f 45/121/21 46/122/21 47/123/21
f 47/123/21 46/122/21 48/124/21
f 47/125/22 48/126/22 42/127/22
f 42/127/22 48/126/22 44/128/22
f 46/129/32 45/130/33 43/131/32
f 43/131/32 45/130/33 41/132/33
f 45/130/33 38/110/26 41/132/33
f 41/132/33 38/110/26 37/109/26
f 38/111/21 45/121/21 39/112/21
f 39/112/21 45/121/21 47/123/21
f 47/125/22 42/127/22 39/114/22
f 39/114/22 42/127/22 40/113/22
f 37/116/20 40/115/20 41/117/20
f 41/117/20 40/115/20 42/118/20
f 49/133/20 50/134/20 51/135/20
f 51/135/20 50/134/20 52/136/20
f 53/137/21 54/138/21 55/139/21
f 55/139/21 54/138/21 56/140/21
f 50/141/22 55/142/22 52/143/22
f 52/143/22 55/142/22 56/144/22
f 49/145/28 51/146/29 53/147/34
f 53/147/34 51/146/29 54/148/29
f 57/149/21 53/137/21 58/150/21
f 58/150/21 53/137/21 55/139/21
f 59/151/35 60/152/36 61/153/35
f 61/153/35 60/152/36 62/154/36
f 63/155/20 64/156/20 59/157/20
f 59/157/20 64/156/20 60/158/20
f 62/159/21 65/160/21 61/161/21
f 61/161/21 65/160/21 66/162/21
f 57/163/26 62/154/36 67/164/26
f 67/164/26 62/154/36 60/152/36
f 57/149/21 58/150/21 62/159/21
f 62/159/21 58/150/21 65/160/21
f 64/156/20 68/165/20 60/158/20
f 60/158/20 68/165/20 67/166/20
f 57/163/26 67/164/26 53/147/34
f 53/147/34 67/164/26 49/145/28
f 67/166/20 68/165/20 49/133/20
f 49/133/20 68/165/20 50/134/20
f 68/167/22 58/168/22 50/141/22
f 50/141/22 58/168/22 55/142/22
f 65/169/22 58/168/22 64/170/22
f 64/170/22 58/168/22 68/167/22
f 66/171/22 65/169/22 63/172/22
f 63/172/22 65/169/22 64/170/22
f 69/173/37 70/174/37 71/175/37
f 71/175/37 70/174/37 72/176/37
f 70/177/38 73/178/38 72/179/38
f 72/179/38 73/178/38 74/180/38
f 73/181/39 75/182/39 74/183/39
f 74/183/39 75/182/39 76/184/39
f 75/185/40 69/186/40 76/187/40
f 76/187/40 69/186/40 71/188/40
f 77/189/41 78/190/42 79/191/43
f 79/191/43 78/190/42 80/192/44
f 81/193/45 82/194/46 83/195/47
f 83/195/47 82/194/46 84/196/48
f 81/197/49 80/198/49 82/199/49
f 82/199/49 80/198/49 78/200/49
f 83/201/50 84/202/50 79/203/50
f 79/203/50 84/202/50 77/204/50
f 85/205/51 86/206/52 87/207/51
f 87/207/51 86/206/52 88/208/52
f 88/209/53 89/210/53 87/211/53
f 87/211/53 89/210/53 90/212/53
f 90/213/54 89/214/55 91/215/56
f 91/215/56 89/214/55 92/216/55
f 91/217/57 92/218/57 85/219/57
f 85/219/57 92/218/57 86/220/57
f 93/221/58 94/222/58 95/223/58
f 95/223/58 94/222/58 96/224/58
f 85/219/57 97/225/57 91/217/57
f 91/217/57 97/225/57 98/226/57
f 85/205/51 87/207/51 97/227/59
f 97/227/59 87/207/51 99/228/59
f 87/211/53 90/212/53 99/229/53
f 99/229/53 90/212/53 100/230/53
f 90/213/54 91/215/56 100/231/60
f 100/231/60 91/215/56 98/232/60
f 97/225/57 94/233/57 98/226/57
f 98/226/57 94/233/57 93/234/57
f 97/227/59 99/228/59 94/235/61
f 94/235/61 99/228/59 96/236/61
f 99/229/53 100/230/53 96/237/53
f 96/237/53 100/230/53 95/238/53
f 100/231/60 98/232/60 95/239/62
f 95/239/62 98/232/60 93/240/62
f 86/220/57 92/218/57 101/241/57
f 101/241/57 92/218/57 102/242/57
f 92/216/55 89/214/55 102/243/63
f 102/243/63 89/214/55 103/244/63
f 88/209/53 104/245/53 89/210/53
f 89/210/53 104/245/53 103/246/53
f 88/208/52 86/206/52 104/247/64
f 104/247/64 86/206/52 101/248/64
f 105/249/65 106/250/66 107/251/67
f 107/251/67 106/250/66 108/252/67
f 109/253/57 105/254/57 110/255/57
f 110/255/57 105/254/57 107/256/57
f 111/257/68 109/258/69 112/259/70
f 112/259/70 109/258/69 110/260/70
f 111/261/53 112/262/53 106/263/53
f 106/263/53 112/262/53 108/264/53
f 102/243/63 103/244/63 105/249/65
f 105/249/65 103/244/63 106/250/66
f 101/241/57 102/242/57 109/253/57
f 109/253/57 102/242/57 105/254/57
f 104/247/64 101/248/64 111/257/68
f 111/257/68 101/248/64 109/258/69
f 104/245/53 111/261/53 103/246/53
f 103/246/53 111/261/53 106/263/53
f 113/265/71 114/266/72 115/267/73
f 114/266/72 116/268/74 115/267/73
f 117/269/75 118/270/76 119/271/77
f 118/270/76 120/272/78 119/271/77
f 117/273/49 119/274/49 116/275/49
f 119/274/49 115/276/49 116/275/49
f 118/277/50 114/278/50 120/279/50
f 114/278/50 113/280/50 120/279/50
f 121/281/51 122/282/51 123/283/52
f 122/282/51 124/284/52 123/283/52
f 124/285/57 122/286/57 125/287/57
f 122/286/57 126/288/57 125/287/57
f 126/289/54 127/290/56 125/291/55
f 127/290/56 128/292/55 125/291/55
f 127/293/53 121/294/53 128/295/53
f 121/294/53 123/296/53 128/295/53
f 129/297/58 130/298/58 131/299/58
f 130/298/58 132/300/58 131/299/58
f 121/294/53 127/293/53 133/301/53
f 127/293/53 134/302/53 133/301/53
f 121/281/51 133/303/59 122/282/51
f 133/303/59 135/304/59 122/282/51
f 122/286/57 135/305/57 126/288/57
f 135/305/57 136/306/57 126/288/57
f 126/289/54 136/307/60 127/290/56
f 136/307/60 134/308/60 127/290/56
f 133/301/53 134/302/53 131/309/53
f 134/302/53 129/310/53 131/309/53
f 133/303/59 131/311/61 135/304/59
f 131/311/61 132/312/61 135/304/59
f 135/305/57 132/313/57 136/306/57
f 132/313/57 130/314/57 136/306/57
f 136/307/60 130/315/62 134/308/60
f 130/315/62 129/316/62 134/308/60
f 123/296/53 137/317/53 128/295/53
f 137/317/53 138/318/53 128/295/53
f 128/292/55 138/319/63 125/291/55
f 138/319/63 139/320/63 125/291/55
f 124/285/57 125/287/57 140/321/57
f 125/287/57 139/322/57 140/321/57
f 124/284/52 140/323/64 123/283/52
f 140/323/64 137/324/64 123/283/52
f 141/325/65 142/326/67 143/327/65
f 142/326/67 144/328/67 143/327/65
f 145/329/53 146/330/53 141/331/53
f 146/330/53 142/332/53 141/331/53
f 147/333/68 148/334/70 145/335/69
f 148/334/70 146/336/70 145/335/69
f 147/337/57 143/338/57 148/339/57
f 143/338/57 144/340/57 148/339/57
f 138/319/63 141/325/65 139/320/63
f 141/325/65 143/327/65 139/320/63
f 137/317/53 145/329/53 138/318/53
f 145/329/53 141/331/53 138/318/53
f 140/323/64 147/333/68 137/324/64
f 147/333/68 145/335/69 137/324/64
f 140/321/57 139/322/57 147/337/57
f 139/322/57 143/338/57 147/337/57
