# Blender v2.80 (sub 75) OBJ File: 'fountain.blend'
# www.blender.org
mtllib fountain.mtl
o Cube
v -0.851859 1.642356 1.381554
v -1.642356 0.851859 1.381554
v -2.000000 1.000000 0.000000
v -1.000000 2.000000 0.000000
v 1.642356 0.851859 1.381554
v 0.851859 1.642356 1.381554
v 1.000000 2.000000 0.000000
v 2.000000 1.000000 0.000000
v -1.642356 -0.851859 1.381554
v -0.851859 -1.642356 1.381554
v -1.000000 -2.000000 0.000000
v -2.000000 -1.000000 0.000000
v 0.851859 -1.642356 1.381554
v 1.642356 -0.851859 1.381554
v 2.000000 -1.000000 0.000000
v 1.000000 -2.000000 0.000000
v -2.000000 1.000000 1.381554
v -1.000000 2.000000 1.381554
v 2.000000 -1.000000 1.381554
v 1.000000 -2.000000 1.381554
v 1.000000 2.000000 1.381554
v 2.000000 1.000000 1.381554
v -1.000000 -2.000000 1.381554
v -2.000000 -1.000000 1.381554
v -0.807797 0.466619 0.579332
v -0.466619 0.807797 0.579332
v 0.807797 -0.466619 0.579332
v 0.466619 -0.807797 0.579332
v 0.466619 0.807797 0.579332
v 0.807797 0.466619 0.579332
v -0.466619 -0.807797 0.579332
v -0.807797 -0.466619 0.579332
v -1.642356 0.851859 0.579332
v -0.851859 1.642356 0.579332
v 1.642356 -0.851859 0.579332
v 0.851859 -1.642356 0.579332
v 0.851859 1.642356 0.579332
v 1.642356 0.851859 0.579332
v -0.851859 -1.642356 0.579332
v -1.642356 -0.851859 0.579332
v -0.807797 0.466619 0.947279
v -0.466619 0.807797 0.947279
v 0.807797 -0.466619 0.947279
v 0.466619 -0.807797 0.947279
v 0.466619 0.807797 0.947279
v 0.807797 0.466619 0.947279
v -0.466619 -0.807797 0.947279
v -0.807797 -0.466619 0.947279
v -0.634416 0.366466 1.420321
v -0.366466 0.634416 1.420321
v 0.634416 -0.366466 1.420321
v 0.366466 -0.634416 1.420321
v 0.366466 0.634416 1.420321
v 0.634416 0.366466 1.420321
v -0.366466 -0.634416 1.420321
v -0.634416 -0.366466 1.420321
v -0.562293 0.324805 1.481924
v -0.324805 0.562293 1.481924
v 0.562293 -0.324804 1.481924
v 0.324805 -0.562292 1.481924
v 0.324805 0.562293 1.481924
v 0.562293 0.324805 1.481924
v -0.324805 -0.562292 1.481924
v -0.562293 -0.324804 1.481924
v -0.452809 0.261562 1.865873
v -0.261562 0.452809 1.865873
v 0.452809 -0.261562 1.865873
v 0.261562 -0.452809 1.865873
v 0.261562 0.452809 1.865873
v 0.452809 0.261562 1.865873
v -0.261562 -0.452809 1.865873
v -0.452809 -0.261562 1.865873
v -0.452809 0.261562 3.691491
v -0.261562 0.452809 3.691491
v 0.452809 -0.261562 3.691491
v 0.261562 -0.452809 3.691491
v 0.261562 0.452809 3.691491
v 0.452809 0.261562 3.691491
v -0.261562 -0.452809 3.691491
v -0.452809 -0.261562 3.691491
v -0.619583 0.357898 3.904316
v -0.357898 0.619583 3.904316
v 0.619583 -0.357898 3.904316
v 0.357898 -0.619583 3.904316
v 0.357898 0.619583 3.904316
v 0.619583 0.357898 3.904316
v -0.357898 -0.619583 3.904316
v -0.619583 -0.357898 3.904316
v -0.842948 0.486923 4.153490
v -0.486923 0.842948 4.153490
v 0.842948 -0.486923 4.153490
v 0.486923 -0.842948 4.153490
v 0.486923 0.842948 4.153490
v 0.842948 0.486923 4.153490
v -0.486923 -0.842948 4.153490
v -0.842948 -0.486923 4.153490
v -0.655444 0.409257 4.601689
v -0.409256 0.655444 4.601689
v 0.655444 -0.409256 4.601689
v 0.409256 -0.655444 4.601689
v 0.409256 0.655444 4.601689
v 0.655444 0.409257 4.601689
v -0.409256 -0.655444 4.601689
v -0.655444 -0.409256 4.601689
v -0.842948 0.486923 4.601689
v -0.486923 0.842948 4.601689
v 0.842948 -0.486923 4.601689
v 0.486923 -0.842948 4.601689
v 0.486923 0.842948 4.601689
v 0.842948 0.486923 4.601689
v -0.486923 -0.842948 4.601689
v -0.842948 -0.486923 4.601689
v -0.452472 0.325183 4.329828
v -0.325183 0.452472 4.329828
v 0.452472 -0.325183 4.329828
v 0.325183 -0.452472 4.329828
v 0.325183 0.452472 4.329828
v 0.452472 0.325183 4.329828
v -0.325183 -0.452472 4.329828
v -0.452472 -0.325183 4.329828
v -0.655444 0.409257 4.329828
v -0.409256 0.655444 4.329828
v 0.655444 -0.409256 4.329828
v 0.409256 -0.655444 4.329828
v 0.409256 0.655444 4.329828
v 0.655444 0.409257 4.329828
v -0.409256 -0.655444 4.329828
v -0.655444 -0.409256 4.329828
v -0.324958 0.233541 4.523924
v -0.233541 0.324958 4.523924
v 0.324958 -0.233541 4.523924
v 0.233541 -0.324958 4.523924
v 0.233541 0.324958 4.523924
v 0.324958 0.233541 4.523924
v -0.233541 -0.324958 4.523924
v -0.324958 -0.233541 4.523924
v -0.189258 0.136016 4.681485
v -0.136016 0.189258 4.681485
v 0.189258 -0.136016 4.681485
v 0.136016 -0.189258 4.681485
v 0.136016 0.189258 4.681485
v 0.189258 0.136016 4.681485
v -0.136016 -0.189258 4.681485
v -0.189258 -0.136016 4.681485
v -0.189258 0.136016 5.381890
v -0.136016 0.189258 5.381890
v 0.189258 -0.136016 5.381890
v 0.136016 -0.189258 5.381890
v 0.136016 0.189258 5.381890
v 0.189258 0.136016 5.381890
v -0.136016 -0.189258 5.381890
v -0.189258 -0.136016 5.381890
v -0.125021 0.089850 5.498919
v -0.089850 0.125021 5.498919
v 0.125021 -0.089850 5.498919
v 0.089850 -0.125020 5.498919
v 0.089850 0.125021 5.498919
v 0.125021 0.089850 5.498919
v -0.089850 -0.125020 5.498919
v -0.125021 -0.089850 5.498919
vt 0.625000 0.812500
vt 0.562500 1.000000
vt 0.375000 0.937500
vt 0.625000 0.562500
vt 0.375000 0.687500
vt 0.375000 0.562500
vt 0.625000 0.312500
vt 0.375000 0.437500
vt 0.375000 0.312500
vt 0.602647 0.178241
vt 0.602647 0.071759
vt 0.602647 0.071759
vt 0.375000 0.562500
vt 0.125000 0.687500
vt 0.125000 0.562500
vt 0.375000 0.500000
vt 0.625000 0.437500
vt 0.625000 0.250000
vt 0.625000 0.562500
vt 0.875000 0.500000
vt 0.875000 0.562500
vt 0.625000 0.687500
vt 0.397353 0.071759
vt 0.437500 0.000000
vt 0.446759 0.022353
vt 0.562500 0.250000
vt 0.553241 0.227647
vt 0.446759 0.227647
vt 0.375000 0.187500
vt 0.397353 0.178241
vt 0.553241 0.022353
vt 0.625000 0.062500
vt 0.562500 0.000000
vt 0.375000 0.062500
vt 0.625000 0.187500
vt 0.437500 0.250000
vt 0.462098 0.190614
vt 0.537902 0.190614
vt 0.537902 0.190614
vt 0.446759 0.022353
vt 0.446759 0.227647
vt 0.397353 0.071759
vt 0.553241 0.227647
vt 0.397353 0.178241
vt 0.553241 0.022353
vt 0.602647 0.178241
vt 0.462098 0.059386
vt 0.565614 0.162902
vt 0.434386 0.162902
vt 0.537902 0.059386
vt 0.565614 0.087098
vt 0.434386 0.087098
vt 0.537902 0.059386
vt 0.462098 0.059386
vt 0.462098 0.059386
vt 0.434386 0.162902
vt 0.565614 0.162902
vt 0.565614 0.087098
vt 0.462098 0.190614
vt 0.434386 0.087098
vt 0.565614 0.162902
vt 0.565614 0.087098
vt 0.565614 0.087098
vt 0.434386 0.162902
vt 0.462098 0.190614
vt 0.434386 0.087098
vt 0.537902 0.190614
vt 0.537902 0.059386
vt 0.434386 0.087098
vt 0.434386 0.162902
vt 0.434386 0.162902
vt 0.462098 0.059386
vt 0.462098 0.190614
vt 0.537902 0.190614
vt 0.537902 0.059386
vt 0.565614 0.162902
vt 0.462098 0.059386
vt 0.434386 0.087098
vt 0.434386 0.087098
vt 0.537902 0.059386
vt 0.537902 0.190614
vt 0.565614 0.162902
vt 0.565614 0.087098
vt 0.462098 0.190614
vt 0.565614 0.162902
vt 0.565614 0.087098
vt 0.565614 0.087098
vt 0.537902 0.190614
vt 0.434386 0.162902
vt 0.537902 0.059386
vt 0.462098 0.059386
vt 0.462098 0.190614
vt 0.565614 0.162902
vt 0.537902 0.190614
vt 0.565614 0.162902
vt 0.462098 0.059386
vt 0.462098 0.190614
vt 0.434386 0.087098
vt 0.537902 0.190614
vt 0.434386 0.162902
vt 0.537902 0.059386
vt 0.462098 0.190614
vt 0.537902 0.190614
vt 0.565614 0.087098
vt 0.462098 0.059386
vt 0.434386 0.087098
vt 0.434386 0.162902
vt 0.537902 0.059386
vt 0.551019 0.156856
vt 0.551019 0.093144
vt 0.551019 0.093144
vt 0.434386 0.162902
vt 0.537902 0.059386
vt 0.565614 0.162902
vt 0.565614 0.087098
vt 0.462098 0.059386
vt 0.462098 0.190614
vt 0.434386 0.087098
vt 0.468144 0.073981
vt 0.531856 0.176019
vt 0.468144 0.176019
vt 0.448981 0.156856
vt 0.531856 0.073981
vt 0.448981 0.093144
vt 0.474688 0.160220
vt 0.525312 0.160220
vt 0.525312 0.160220
vt 0.468144 0.073981
vt 0.468144 0.176019
vt 0.448981 0.093144
vt 0.531856 0.176019
vt 0.448981 0.156856
vt 0.531856 0.073981
vt 0.551019 0.156856
vt 0.464780 0.099688
vt 0.474688 0.089780
vt 0.535220 0.150312
vt 0.464780 0.150312
vt 0.525312 0.089780
vt 0.535220 0.099688
vt 0.474688 0.089780
vt 0.525312 0.089780
vt 0.474688 0.089780
vt 0.464780 0.150312
vt 0.525312 0.089780
vt 0.535220 0.150312
vt 0.535220 0.099688
vt 0.474688 0.160220
vt 0.464780 0.099688
vt 0.535220 0.150312
vt 0.535220 0.099688
vt 0.535220 0.099688
vt 0.474688 0.160220
vt 0.464780 0.099688
vt 0.525312 0.160220
vt 0.464780 0.150312
vt 0.464780 0.099688
vt 0.464780 0.150312
vt 0.464780 0.150312
vt 0.474688 0.089780
vt 0.474688 0.160220
vt 0.525312 0.160220
vt 0.525312 0.089780
vt 0.535220 0.150312
vt 0.535220 0.099688
vt 0.525312 0.160220
vt 0.525312 0.089780
vt 0.535220 0.150312
vt 0.474688 0.089780
vt 0.474688 0.160220
vt 0.464780 0.099688
vt 0.375000 0.812500
vt 0.437500 0.750000
vt 0.562500 0.750000
vt 0.625000 0.937500
vt 0.437500 1.000000
vt 0.625000 0.687500
vt 0.375000 0.687500
vt 0.125000 0.500000
vt 0.375000 0.250000
vt 0.625000 0.500000
vt 0.875000 0.687500
vn 0.0000 0.0000 -1.0000
vn 0.0000 -1.0000 0.0000
vn 1.0000 0.0000 0.0000
vn 0.0000 1.0000 0.0000
vn -0.7071 0.7071 0.0000
vn 0.7071 -0.7071 0.0000
vn 0.7071 0.7071 0.0000
vn -0.7071 -0.7071 0.0000
vn -1.0000 0.0000 0.0000
vn 0.0000 0.0000 1.0000
vn -0.9389 0.0000 0.3441
vn 0.0000 -0.6495 0.7604
vn 0.6545 0.6545 0.3785
vn -0.6545 0.6545 0.3785
vn 0.9389 0.0000 0.3441
vn 0.0000 0.9389 0.3441
vn -0.6545 -0.6545 0.3785
vn 0.6545 -0.6545 0.3785
vn 0.0000 -0.9389 0.3441
vn 0.0000 0.9617 0.2742
vn -0.6495 0.0000 0.7604
vn 0.4299 0.4299 0.7940
vn -0.4299 0.4299 0.7940
vn 0.6495 0.0000 0.7604
vn 0.0000 0.6495 0.7604
vn -0.4299 -0.4299 0.7940
vn 0.4299 -0.4299 0.7940
vn -0.6738 -0.6738 0.3031
vn 0.6738 -0.6738 0.3031
vn 0.0000 -0.9617 0.2742
vn -0.9617 0.0000 0.2742
vn 0.6738 0.6738 0.3031
vn -0.6738 0.6738 0.3031
vn 0.9617 0.0000 0.2742
vn 0.0000 -0.7871 -0.6168
vn 0.5000 -0.5000 -0.7071
vn -0.7871 0.0000 -0.6168
vn 0.5324 0.5324 -0.6582
vn -0.5324 0.5324 -0.6582
vn 0.7871 0.0000 -0.6168
vn 0.0000 0.7871 -0.6168
vn -0.5324 -0.5324 -0.6582
vn 0.5324 -0.5324 -0.6582
vn 0.0000 -0.7446 -0.6675
vn -0.7446 0.0000 -0.6675
vn 0.5000 0.5000 -0.7071
vn -0.5000 0.5000 -0.7071
vn 0.7446 0.0000 -0.6675
vn 0.0000 0.7446 -0.6675
vn -0.5000 -0.5000 -0.7071
vn 0.8358 0.0000 0.5491
vn -0.7577 0.0000 0.6526
vn 0.0000 0.8358 0.5491
vn -0.5526 -0.5526 0.6239
vn 0.5526 -0.5526 0.6239
vn 0.0000 -0.8358 0.5491
vn -0.8358 0.0000 0.5491
vn 0.5526 0.5526 0.6239
vn -0.5526 0.5526 0.6239
vn 0.4885 0.4885 0.7230
vn -0.4885 0.4885 0.7230
vn 0.7577 0.0000 0.6526
vn 0.0000 0.7577 0.6526
vn -0.4885 -0.4885 0.7230
vn 0.4885 -0.4885 0.7230
vn 0.0000 -0.7577 0.6526
vn 0.0000 0.8766 0.4812
vn -0.5882 -0.5882 0.5549
vn 0.5882 -0.5882 0.5549
vn 0.0000 -0.8766 0.4812
vn -0.8766 0.0000 0.4812
vn 0.5882 0.5882 0.5549
vn -0.5882 0.5882 0.5549
vn 0.8766 0.0000 0.4812
usemtl Material.001
s off
f 4/1/1 8/2/1 16/3/1
f 20/4/2 11/5/2 16/6/2
f 22/7/3 15/8/3 8/9/3
f 13/10/4 39/11/4 10/12/4
f 18/13/4 7/14/4 4/15/4
f 4/15/5 17/16/5 18/13/5
f 19/17/6 16/6/6 15/8/6
f 8/9/7 21/18/7 22/7/7
f 12/19/8 23/20/8 24/21/8
f 24/21/9 3/22/9 12/19/9
f 1/23/10 17/24/10 2/25/10
f 13/10/10 19/26/10 14/27/10
f 5/28/10 21/29/10 6/30/10
f 9/31/10 23/32/10 10/12/10
f 2/25/10 24/33/10 9/31/10
f 6/30/10 18/34/10 1/23/10
f 10/12/10 20/35/10 13/10/10
f 14/27/10 22/36/10 5/28/10
f 30/37/3 43/38/3 27/39/3
f 9/31/3 33/40/3 2/25/3
f 6/30/8 38/41/8 5/28/8
f 2/25/6 34/42/6 1/23/6
f 5/28/9 35/43/9 14/27/9
f 1/23/2 37/44/2 6/30/2
f 10/12/7 40/45/7 9/31/7
f 14/27/5 36/46/5 13/10/5
f 25/47/10 34/42/10 33/40/10
f 28/48/10 35/43/10 27/39/10
f 30/37/10 37/44/10 29/49/10
f 32/50/10 39/11/10 31/51/10
f 32/50/10 33/40/10 40/45/10
f 29/49/10 34/42/10 26/52/10
f 31/51/10 36/46/10 28/48/10
f 27/39/10 38/41/10 30/37/10
f 48/53/11 49/54/11 41/55/11
f 26/52/4 45/56/4 29/49/4
f 31/51/8 48/53/8 32/50/8
f 27/39/6 44/57/6 28/48/6
f 28/48/2 47/58/2 31/51/2
f 32/50/9 41/55/9 25/47/9
f 29/49/7 46/59/7 30/37/7
f 25/47/5 42/60/5 26/52/5
f 52/61/12 63/62/12 55/63/12
f 46/59/13 53/64/13 54/65/13
f 41/55/14 50/66/14 42/60/14
f 46/59/15 51/67/15 43/38/15
f 42/60/16 53/64/16 45/56/16
f 48/53/17 55/63/17 56/68/17
f 43/38/18 52/61/18 44/57/18
f 44/57/19 55/63/19 47/58/19
f 58/69/20 69/70/20 61/71/20
f 56/68/21 57/72/21 49/54/21
f 53/64/22 62/73/22 54/65/22
f 49/54/23 58/69/23 50/66/23
f 54/65/24 59/74/24 51/67/24
f 50/66/25 61/71/25 53/64/25
f 55/63/26 64/75/26 56/68/26
f 51/67/27 60/76/27 52/61/27
f 65/77/5 74/78/5 66/79/5
f 63/62/28 72/80/28 64/75/28
f 60/76/29 67/81/29 68/82/29
f 60/76/30 71/83/30 63/62/30
f 64/75/31 65/77/31 57/72/31
f 61/71/32 70/84/32 62/73/32
f 57/72/33 66/79/33 58/69/33
f 62/73/34 67/81/34 59/74/34
f 76/85/35 87/86/35 79/87/35
f 70/84/3 75/88/3 67/81/3
f 66/79/4 77/89/4 69/70/4
f 71/83/8 80/90/8 72/80/8
f 67/81/6 76/85/6 68/82/6
f 68/82/2 79/87/2 71/83/2
f 72/80/9 73/91/9 65/77/9
f 69/70/7 78/92/7 70/84/7
f 84/93/36 91/94/36 92/95/36
f 80/90/37 81/96/37 73/91/37
f 77/89/38 86/97/38 78/92/38
f 73/91/39 82/98/39 74/78/39
f 75/88/40 86/97/40 83/99/40
f 74/78/41 85/100/41 77/89/41
f 79/87/42 88/101/42 80/90/42
f 76/85/43 83/99/43 84/93/43
f 94/102/3 107/103/3 91/94/3
f 84/93/44 95/104/44 87/86/44
f 88/101/45 89/105/45 81/96/45
f 85/100/46 94/102/46 86/97/46
f 81/96/47 90/106/47 82/98/47
f 86/97/48 91/94/48 83/99/48
f 82/98/49 93/107/49 85/100/49
f 87/86/50 96/108/50 88/101/50
f 100/109/4 127/110/4 103/111/4
f 90/106/4 109/112/4 93/107/4
f 95/104/8 112/113/8 96/108/8
f 91/94/6 108/114/6 92/95/6
f 92/95/2 111/115/2 95/104/2
f 89/105/9 112/113/9 105/116/9
f 93/107/7 110/117/7 94/102/7
f 89/105/5 106/118/5 90/106/5
f 97/119/10 106/118/10 105/116/10
f 100/109/10 107/103/10 99/120/10
f 102/121/10 109/112/10 101/122/10
f 104/123/10 111/115/10 103/111/10
f 97/119/10 112/113/10 104/123/10
f 101/122/10 106/118/10 98/124/10
f 103/111/10 108/114/10 100/109/10
f 99/120/10 110/117/10 102/121/10
f 118/125/51 131/126/51 115/127/51
f 104/123/3 121/128/3 97/119/3
f 101/122/8 126/129/8 102/121/8
f 97/119/6 122/130/6 98/124/6
f 102/121/9 123/131/9 99/120/9
f 98/124/2 125/132/2 101/122/2
f 103/111/7 128/133/7 104/123/7
f 99/120/5 124/134/5 100/109/5
f 114/135/10 121/128/10 113/136/10
f 116/137/10 123/131/10 115/127/10
f 117/138/10 126/129/10 125/132/10
f 120/139/10 127/110/10 119/140/10
f 113/136/10 128/133/10 120/139/10
f 114/135/10 125/132/10 122/130/10
f 119/140/10 124/134/10 116/137/10
f 118/125/10 123/131/10 126/129/10
f 129/141/52 144/142/52 137/143/52
f 114/135/53 133/144/53 117/138/53
f 119/140/54 136/145/54 120/139/54
f 115/127/55 132/146/55 116/137/55
f 116/137/56 135/147/56 119/140/56
f 120/139/57 129/141/57 113/136/57
f 117/138/58 134/148/58 118/125/58
f 114/135/59 129/141/59 130/149/59
f 140/150/2 151/151/2 143/152/2
f 133/144/60 142/153/60 134/148/60
f 130/149/61 137/143/61 138/154/61
f 134/148/62 139/155/62 131/126/62
f 130/149/63 141/156/63 133/144/63
f 136/145/64 143/152/64 144/142/64
f 131/126/65 140/150/65 132/146/65
f 132/146/66 143/152/66 135/147/66
f 146/157/67 157/158/67 149/159/67
f 144/142/9 145/160/9 137/143/9
f 141/156/7 150/161/7 142/153/7
f 137/143/5 146/157/5 138/154/5
f 142/153/3 147/162/3 139/155/3
f 138/154/4 149/159/4 141/156/4
f 143/152/8 152/163/8 144/142/8
f 139/155/6 148/164/6 140/150/6
f 159/165/10 155/166/10 157/158/10
f 151/151/68 160/167/68 152/163/68
f 147/162/69 156/168/69 148/164/69
f 148/164/70 159/165/70 151/151/70
f 152/163/71 153/169/71 145/160/71
f 149/159/72 158/170/72 150/161/72
f 146/157/73 153/169/73 154/171/73
f 150/161/74 155/166/74 147/162/74
f 16/3/1 11/172/1 12/173/1
f 12/173/1 3/174/1 4/1/1
f 4/1/1 7/175/1 8/2/1
f 8/2/1 15/176/1 16/3/1
f 16/3/1 12/173/1 4/1/1
f 20/4/2 23/177/2 11/5/2
f 22/7/3 19/17/3 15/8/3
f 13/10/4 36/46/4 39/11/4
f 18/13/4 21/178/4 7/14/4
f 4/15/5 3/179/5 17/16/5
f 19/17/6 20/4/6 16/6/6
f 8/9/7 7/180/7 21/18/7
f 12/19/8 11/181/8 23/20/8
f 24/21/9 17/182/9 3/22/9
f 1/23/10 18/34/10 17/24/10
f 13/10/10 20/35/10 19/26/10
f 5/28/10 22/36/10 21/29/10
f 9/31/10 24/33/10 23/32/10
f 2/25/10 17/24/10 24/33/10
f 6/30/10 21/29/10 18/34/10
f 10/12/10 23/32/10 20/35/10
f 14/27/10 19/26/10 22/36/10
f 30/37/3 46/59/3 43/38/3
f 9/31/3 40/45/3 33/40/3
f 6/30/8 37/44/8 38/41/8
f 2/25/6 33/40/6 34/42/6
f 5/28/9 38/41/9 35/43/9
f 1/23/2 34/42/2 37/44/2
f 10/12/7 39/11/7 40/45/7
f 14/27/5 35/43/5 36/46/5
f 25/47/10 26/52/10 34/42/10
f 28/48/10 36/46/10 35/43/10
f 30/37/10 38/41/10 37/44/10
f 32/50/10 40/45/10 39/11/10
f 32/50/10 25/47/10 33/40/10
f 29/49/10 37/44/10 34/42/10
f 31/51/10 39/11/10 36/46/10
f 27/39/10 35/43/10 38/41/10
f 48/53/11 56/68/11 49/54/11
f 26/52/4 42/60/4 45/56/4
f 31/51/8 47/58/8 48/53/8
f 27/39/6 43/38/6 44/57/6
f 28/48/2 44/57/2 47/58/2
f 32/50/9 48/53/9 41/55/9
f 29/49/7 45/56/7 46/59/7
f 25/47/5 41/55/5 42/60/5
f 52/61/12 60/76/12 63/62/12
f 46/59/13 45/56/13 53/64/13
f 41/55/14 49/54/14 50/66/14
f 46/59/15 54/65/15 51/67/15
f 42/60/16 50/66/16 53/64/16
f 48/53/17 47/58/17 55/63/17
f 43/38/18 51/67/18 52/61/18
f 44/57/19 52/61/19 55/63/19
f 58/69/20 66/79/20 69/70/20
f 56/68/21 64/75/21 57/72/21
f 53/64/22 61/71/22 62/73/22
f 49/54/23 57/72/23 58/69/23
f 54/65/24 62/73/24 59/74/24
f 50/66/25 58/69/25 61/71/25
f 55/63/26 63/62/26 64/75/26
f 51/67/27 59/74/27 60/76/27
f 65/77/5 73/91/5 74/78/5
f 63/62/28 71/83/28 72/80/28
f 60/76/29 59/74/29 67/81/29
f 60/76/30 68/82/30 71/83/30
f 64/75/31 72/80/31 65/77/31
f 61/71/32 69/70/32 70/84/32
f 57/72/33 65/77/33 66/79/33
f 62/73/34 70/84/34 67/81/34
f 76/85/35 84/93/35 87/86/35
f 70/84/3 78/92/3 75/88/3
f 66/79/4 74/78/4 77/89/4
f 71/83/8 79/87/8 80/90/8
f 67/81/6 75/88/6 76/85/6
f 68/82/2 76/85/2 79/87/2
f 72/80/9 80/90/9 73/91/9
f 69/70/7 77/89/7 78/92/7
f 84/93/36 83/99/36 91/94/36
f 80/90/37 88/101/37 81/96/37
f 77/89/38 85/100/38 86/97/38
f 73/91/39 81/96/39 82/98/39
f 75/88/40 78/92/40 86/97/40
f 74/78/41 82/98/41 85/100/41
f 79/87/42 87/86/42 88/101/42
f 76/85/43 75/88/43 83/99/43
f 94/102/3 110/117/3 107/103/3
f 84/93/44 92/95/44 95/104/44
f 88/101/45 96/108/45 89/105/45
f 85/100/46 93/107/46 94/102/46
f 81/96/47 89/105/47 90/106/47
f 86/97/48 94/102/48 91/94/48
f 82/98/49 90/106/49 93/107/49
f 87/86/50 95/104/50 96/108/50
f 100/109/4 124/134/4 127/110/4
f 90/106/4 106/118/4 109/112/4
f 95/104/8 111/115/8 112/113/8
f 91/94/6 107/103/6 108/114/6
f 92/95/2 108/114/2 111/115/2
f 89/105/9 96/108/9 112/113/9
f 93/107/7 109/112/7 110/117/7
f 89/105/5 105/116/5 106/118/5
f 97/119/10 98/124/10 106/118/10
f 100/109/10 108/114/10 107/103/10
f 102/121/10 110/117/10 109/112/10
f 104/123/10 112/113/10 111/115/10
f 97/119/10 105/116/10 112/113/10
f 101/122/10 109/112/10 106/118/10
f 103/111/10 111/115/10 108/114/10
f 99/120/10 107/103/10 110/117/10
f 118/125/51 134/148/51 131/126/51
f 104/123/3 128/133/3 121/128/3
f 101/122/8 125/132/8 126/129/8
f 97/119/6 121/128/6 122/130/6
f 102/121/9 126/129/9 123/131/9
f 98/124/2 122/130/2 125/132/2
f 103/111/7 127/110/7 128/133/7
f 99/120/5 123/131/5 124/134/5
f 114/135/10 122/130/10 121/128/10
f 116/137/10 124/134/10 123/131/10
f 117/138/10 118/125/10 126/129/10
f 120/139/10 128/133/10 127/110/10
f 113/136/10 121/128/10 128/133/10
f 114/135/10 117/138/10 125/132/10
f 119/140/10 127/110/10 124/134/10
f 118/125/10 115/127/10 123/131/10
f 129/141/52 136/145/52 144/142/52
f 114/135/53 130/149/53 133/144/53
f 119/140/54 135/147/54 136/145/54
f 115/127/55 131/126/55 132/146/55
f 116/137/56 132/146/56 135/147/56
f 120/139/57 136/145/57 129/141/57
f 117/138/58 133/144/58 134/148/58
f 114/135/59 113/136/59 129/141/59
f 140/150/2 148/164/2 151/151/2
f 133/144/60 141/156/60 142/153/60
f 130/149/61 129/141/61 137/143/61
f 134/148/62 142/153/62 139/155/62
f 130/149/63 138/154/63 141/156/63
f 136/145/64 135/147/64 143/152/64
f 131/126/65 139/155/65 140/150/65
f 132/146/66 140/150/66 143/152/66
f 146/157/67 154/171/67 157/158/67
f 144/142/9 152/163/9 145/160/9
f 141/156/7 149/159/7 150/161/7
f 137/143/5 145/160/5 146/157/5
f 142/153/3 150/161/3 147/162/3
f 138/154/4 146/157/4 149/159/4
f 143/152/8 151/151/8 152/163/8
f 139/155/6 147/162/6 148/164/6
f 157/158/10 154/171/10 159/165/10
f 154/171/10 153/169/10 159/165/10
f 153/169/10 160/167/10 159/165/10
f 159/165/10 156/168/10 155/166/10
f 155/166/10 158/170/10 157/158/10
f 151/151/68 159/165/68 160/167/68
f 147/162/69 155/166/69 156/168/69
f 148/164/70 156/168/70 159/165/70
f 152/163/71 160/167/71 153/169/71
f 149/159/72 157/158/72 158/170/72
f 146/157/73 145/160/73 153/169/73
f 150/161/74 158/170/74 155/166/74
