# Blender v2.80 (sub 75) OBJ File: 'street_light.blend'
# www.blender.org
mtllib street_light.mtl
o Cube
v 0.500000 0.500000 0.000000
v 0.500000 -0.500000 0.000000
v -0.500000 0.500000 0.000000
v -0.500000 -0.500000 0.000000
v 0.500000 -0.500000 2.000000
v -0.500000 -0.500000 2.000000
v 0.500000 0.500000 2.000000
v -0.500000 0.500000 2.000000
v 0.254788 0.400000 2.000000
v 0.400000 0.254788 2.000000
v 0.499982 0.499982 2.000000
v 0.400000 -0.254788 2.000000
v 0.254788 -0.400000 2.000000
v 0.499982 -0.499982 2.000000
v -0.400000 0.254788 2.000000
v -0.254788 0.400000 2.000000
v -0.499982 0.499982 2.000000
v -0.254788 -0.400000 2.000000
v -0.400000 -0.254788 2.000000
v -0.499982 -0.499982 2.000000
v 0.400000 -0.254788 12.000000
v 0.254788 -0.400000 12.290424
v -0.254788 -0.400000 12.000000
v -0.400000 -0.254788 12.000000
v 0.254788 0.400000 12.290424
v 0.400000 0.254788 12.000000
v -0.400000 0.254788 12.000000
v -0.254788 0.400000 12.000000
v 0.400000 -0.400000 12.509576
v 0.400000 -0.254788 12.800000
v -0.254788 -0.400000 12.509576
v -0.400000 -0.254788 12.800000
v 0.400000 0.254788 12.800000
v 0.400000 0.400000 12.509576
v -0.254788 0.400000 12.509576
v -0.400000 0.254788 12.800000
v 2.400000 0.254788 12.000000
v 2.400000 0.400000 12.290424
v 2.400000 -0.400000 12.290424
v 2.400000 -0.254788 12.000000
v 2.400000 0.400000 12.509576
v 2.400000 0.254788 12.800000
v 2.400000 -0.254788 12.800000
v 2.400000 -0.400000 12.509576
vt 0.436303 0.225000
vt 0.563697 0.225000
vt 0.563697 0.225000
vt 0.625000 0.250000
vt 0.375000 0.500000
vt 0.375000 0.250000
vt 0.625000 0.500000
vt 0.375000 0.750000
vt 0.625000 0.750000
vt 0.375000 1.000000
vt 0.375000 0.500000
vt 0.125000 0.750000
vt 0.125000 0.500000
vt 0.875000 0.500000
vt 0.625000 0.500000
vt 0.600000 0.188697
vt 0.600000 0.061303
vt 0.600000 0.061303
vt 0.436303 0.025000
vt 0.563697 0.025000
vt 0.436303 0.025000
vt 0.436303 0.225000
vt 0.563697 0.225000
vt 0.400000 0.061303
vt 0.400000 0.188697
vt 0.400000 0.188697
vt 0.563697 0.025000
vt 0.400000 0.025000
vt 0.625000 0.000000
vt 0.625000 0.250000
vt 0.375000 0.250000
vt 0.375000 0.000000
vt 0.563697 0.025000
vt 0.400000 0.188697
vt 0.400000 0.061303
vt 0.400000 0.061303
vt 0.400000 0.225000
vt 0.400000 0.225000
vt 0.400000 0.225000
vt 0.400000 0.025000
vt 0.400000 0.025000
vt 0.600000 0.061303
vt 0.400000 0.188697
vt 0.400000 0.188697
vt 0.400000 0.061303
vt 0.600000 0.188697
vt 0.400000 0.025000
vt 0.375004 0.000004
vt 0.400000 0.225000
vt 0.375004 0.249996
vt 0.600000 0.025000
vt 0.624996 0.000004
vt 0.600000 0.225000
vt 0.624996 0.249996
vt 0.400000 0.061303
vt 0.400000 0.225000
vt 0.625000 0.750000
vt 0.625000 1.000000
vt 0.375000 0.750000
vt 0.875000 0.750000
vt 0.400000 0.025000
vt 0.600000 0.188697
vn 0.0000 -1.0000 0.0000
vn -1.0000 0.0000 0.0000
vn 0.0000 0.0000 -1.0000
vn 1.0000 0.0000 0.0000
vn 0.0000 1.0000 0.0000
vn 0.0000 0.0000 1.0000
vn 0.7071 0.7071 0.0000
vn 0.7071 -0.7071 0.0000
vn -0.7071 -0.7071 0.0000
vn -0.7071 0.7071 0.0000
vn 0.0000 -0.8944 0.4472
vn -0.0000 0.8944 0.4472
vn 0.0000 0.8944 -0.4472
vn -0.0000 -0.8944 -0.4472
usemtl Material.001
s off
f 13/1/1 23/2/1 18/3/1
f 5/4/1 4/5/1 2/6/1
f 6/7/2 3/8/2 4/5/2
f 1/9/3 4/10/3 3/8/3
f 7/11/4 2/12/4 1/13/4
f 8/14/5 1/9/5 3/15/5
f 19/16/2 27/17/2 15/18/2
f 9/19/5 28/20/5 25/21/5
f 22/22/1 31/23/1 23/2/1
f 10/24/4 21/25/4 12/26/4
f 25/21/5 35/27/5 34/28/5
f 8/29/6 6/30/6 19/16/6
f 6/30/6 5/31/6 13/1/6
f 7/32/6 8/29/6 16/33/6
f 30/34/6 42/35/6 33/36/6
f 29/37/1 39/38/1 44/39/1
f 34/28/5 38/40/5 25/41/5
f 36/42/6 30/34/6 33/36/6
f 43/43/4 44/39/4 40/44/4
f 26/45/3 40/44/3 21/25/3
f 24/46/2 36/42/2 27/17/2
f 9/19/6 10/47/6 11/48/6
f 12/26/6 13/49/6 14/50/6
f 15/18/6 16/51/6 17/52/6
f 18/3/6 19/53/6 20/54/6
f 9/19/7 26/45/7 10/24/7
f 13/1/8 21/25/8 22/22/8
f 23/2/9 19/16/9 18/3/9
f 16/33/10 27/17/10 28/20/10
f 30/34/11 31/23/11 29/37/11
f 33/36/12 35/27/12 36/42/12
f 31/23/9 24/46/9 23/2/9
f 35/27/10 27/17/10 36/42/10
f 42/35/12 34/28/12 33/36/12
f 26/45/13 38/40/13 37/55/13
f 44/39/11 30/34/11 29/37/11
f 21/25/14 39/38/14 22/56/14
f 5/31/6 7/32/6 10/24/6
f 13/1/1 22/22/1 23/2/1
f 5/4/1 6/7/1 4/5/1
f 6/7/2 8/57/2 3/8/2
f 1/9/3 2/58/3 4/10/3
f 7/11/4 5/59/4 2/12/4
f 8/14/5 7/60/5 1/9/5
f 19/16/2 24/46/2 27/17/2
f 9/19/5 16/33/5 28/20/5
f 22/22/1 29/37/1 31/23/1
f 10/24/4 26/45/4 21/25/4
f 25/21/5 28/20/5 35/27/5
f 6/30/6 20/54/6 19/16/6
f 19/16/6 15/18/6 8/29/6
f 15/18/6 17/52/6 8/29/6
f 5/31/6 14/50/6 13/1/6
f 13/1/6 18/3/6 6/30/6
f 18/3/6 20/54/6 6/30/6
f 8/29/6 17/52/6 16/33/6
f 16/33/6 9/19/6 7/32/6
f 9/19/6 11/48/6 7/32/6
f 30/34/6 43/43/6 42/35/6
f 29/37/1 22/56/1 39/38/1
f 34/28/5 41/61/5 38/40/5
f 36/42/6 32/62/6 30/34/6
f 44/39/4 39/38/4 40/44/4
f 40/44/4 37/55/4 42/35/4
f 37/55/4 38/40/4 42/35/4
f 38/40/4 41/61/4 42/35/4
f 42/35/4 43/43/4 40/44/4
f 26/45/3 37/55/3 40/44/3
f 24/46/2 32/62/2 36/42/2
f 9/19/7 25/21/7 26/45/7
f 13/1/8 12/26/8 21/25/8
f 23/2/9 24/46/9 19/16/9
f 16/33/10 15/18/10 27/17/10
f 30/34/11 32/62/11 31/23/11
f 33/36/12 34/28/12 35/27/12
f 31/23/9 32/62/9 24/46/9
f 35/27/10 28/20/10 27/17/10
f 42/35/12 41/61/12 34/28/12
f 26/45/13 25/41/13 38/40/13
f 44/39/11 43/43/11 30/34/11
f 21/25/14 40/44/14 39/38/14
f 7/32/6 11/48/6 10/24/6
f 10/24/6 12/26/6 5/31/6
f 12/26/6 14/50/6 5/31/6
o Circle
v 2.000000 1.000000 10.862718
v 1.617316 0.923879 10.862718
v 1.292893 0.707107 10.862718
v 1.076120 0.382683 10.862718
v 1.000000 -0.000000 10.862718
v 1.076120 -0.382684 10.862718
v 1.292893 -0.707107 10.862718
v 1.617316 -0.923880 10.862718
v 2.000000 -1.000000 10.862718
v 2.382683 -0.923880 10.862718
v 2.707107 -0.707107 10.862718
v 2.923880 -0.382684 10.862718
v 3.000000 -0.000000 10.862718
v 2.923879 0.382683 10.862718
v 2.707107 0.707107 10.862718
v 2.382683 0.923880 10.862718
v 1.617316 0.923879 11.112718
v 2.000000 1.000000 11.112718
v 1.292893 0.707107 11.112718
v 1.076120 0.382683 11.112718
v 1.000000 -0.000000 11.112718
v 1.076120 -0.382684 11.112718
v 1.292893 -0.707107 11.112718
v 1.617316 -0.923880 11.112718
v 2.000000 -1.000000 11.112718
v 2.382683 -0.923880 11.112718
v 2.707107 -0.707107 11.112718
v 2.923880 -0.382684 11.112718
v 3.000000 -0.000000 11.112718
v 2.923879 0.382683 11.112718
v 2.707107 0.707107 11.112718
v 2.382683 0.923880 11.112718
v 1.714524 0.689199 11.612718
v 2.000000 0.745984 11.612718
v 1.472510 0.527490 11.612718
v 1.310801 0.285476 11.612718
v 1.254016 -0.000000 11.612718
v 1.310801 -0.285476 11.612718
v 1.472510 -0.527490 11.612718
v 1.714524 -0.689199 11.612718
v 2.000000 -0.745984 11.612718
v 2.285475 -0.689200 11.612718
v 2.527490 -0.527491 11.612718
v 2.689199 -0.285476 11.612718
v 2.745984 -0.000000 11.612718
v 2.689199 0.285476 11.612718
v 2.527490 0.527490 11.612718
v 2.285475 0.689199 11.612718
v 1.947253 0.127343 11.862718
v 2.000000 0.137835 11.862718
v 1.902536 0.097464 11.862718
v 1.872657 0.052747 11.862718
v 1.862165 -0.000000 11.862718
v 1.872657 -0.052747 11.862718
v 1.902536 -0.097464 11.862718
v 1.947253 -0.127343 11.862718
v 2.000000 -0.137835 11.862718
v 2.052747 -0.127343 11.862718
v 2.097464 -0.097464 11.862718
v 2.127343 -0.052747 11.862718
v 2.137835 -0.000000 11.862718
v 2.127343 0.052747 11.862718
v 2.097464 0.097464 11.862718
v 2.052747 0.127343 11.862718
v 1.838293 0.390394 11.862718
v 2.000000 0.422559 11.862718
v 1.701205 0.298795 11.862718
v 1.609606 0.161706 11.862718
v 1.577441 -0.000000 11.862718
v 1.609606 -0.161707 11.862718
v 1.701205 -0.298795 11.862718
v 1.838293 -0.390394 11.862718
v 2.000000 -0.422560 11.862718
v 2.161706 -0.390394 11.862718
v 2.298795 -0.298795 11.862718
v 2.390394 -0.161707 11.862718
v 2.422559 -0.000000 11.862718
v 2.390394 0.161706 11.862718
v 2.298795 0.298795 11.862718
v 2.161706 0.390394 11.862718
v 1.947253 0.127343 12.010918
v 2.000000 0.137835 12.010918
v 1.902536 0.097464 12.010918
v 1.872657 0.052747 12.010918
v 1.862165 -0.000000 12.010918
v 1.872657 -0.052747 12.010918
v 1.902536 -0.097464 12.010918
v 1.947253 -0.127343 12.010918
v 2.000000 -0.137835 12.010918
v 2.052747 -0.127343 12.010918
v 2.097464 -0.097464 12.010918
v 2.127343 -0.052747 12.010918
v 2.137835 -0.000000 12.010918
v 2.127343 0.052747 12.010918
v 2.097464 0.097464 12.010918
v 2.052747 0.127343 12.010918
vt 0.000000 0.000000
vt 0.000000 0.000000
vt 0.000000 0.000000
vt 0.000000 0.000000
vt 0.000000 0.000000
vt 0.000000 0.000000
vt 0.000000 0.000000
vt 0.000000 0.000000
vt 0.000000 0.000000
vt 0.000000 0.000000
vt 0.000000 0.000000
vt 0.000000 0.000000
vt 0.000000 0.000000
vt 0.000000 0.000000
vt 0.000000 0.000000
vt 0.000000 0.000000
vt 0.000000 0.000000
vt 0.000000 0.000000
vt 0.000000 0.000000
vt 0.000000 0.000000
vt 0.000000 0.000000
vt 0.000000 0.000000
vt 0.000000 0.000000
vt 0.000000 0.000000
vt 0.000000 0.000000
vt 0.000000 0.000000
vt 0.000000 0.000000
vt 0.000000 0.000000
vt 0.000000 0.000000
vt 0.000000 0.000000
vt 0.000000 0.000000
vt 0.000000 0.000000
vt 0.000000 0.000000
vt 0.000000 0.000000
vt 0.000000 0.000000
vt 0.000000 0.000000
vt 0.000000 0.000000
vt 0.000000 0.000000
vt 0.000000 0.000000
vt 0.000000 0.000000
vt 0.000000 0.000000
vt 0.000000 0.000000
vt 0.000000 0.000000
vt 0.000000 0.000000
vt 0.000000 0.000000
vt 0.000000 0.000000
vt 0.000000 0.000000
vt 0.000000 0.000000
vt 0.000000 0.000000
vt 0.000000 0.000000
vt 0.000000 0.000000
vt 0.000000 0.000000
vt 0.000000 0.000000
vt 0.000000 0.000000
vt 0.000000 0.000000
vt 0.000000 0.000000
vt 0.000000 0.000000
vt 0.000000 0.000000
vt 0.000000 0.000000
vt 0.000000 0.000000
vt 0.000000 0.000000
vt 0.000000 0.000000
vt 0.000000 0.000000
vt 0.000000 0.000000
vt 0.000000 0.000000
vt 0.000000 0.000000
vt 0.000000 0.000000
vt 0.000000 0.000000
vt 0.000000 0.000000
vt 0.000000 0.000000
vt 0.000000 0.000000
vt 0.000000 0.000000
vt 0.000000 0.000000
vt 0.000000 0.000000
vt 0.000000 0.000000
vt 0.000000 0.000000
vt 0.000000 0.000000
vt 0.000000 0.000000
vt 0.000000 0.000000
vt 0.000000 0.000000
vt 0.000000 0.000000
vt 0.000000 0.000000
vt 0.000000 0.000000
vt 0.000000 0.000000
vt 0.000000 0.000000
vt 0.000000 0.000000
vt 0.000000 0.000000
vt 0.000000 0.000000
vt 0.000000 0.000000
vt 0.000000 0.000000
vt 0.000000 0.000000
vt 0.000000 0.000000
vt 0.000000 0.000000
vt 0.000000 0.000000
vt 0.000000 0.000000
vt 0.000000 0.000000
vn 0.0000 0.0000 -1.0000
vn 0.7442 0.4973 0.4460
vn 0.5556 0.8315 0.0000
vn -0.1951 -0.9808 0.0000
vn -0.1951 0.9808 0.0000
vn 0.1951 0.9808 0.0000
vn 0.1951 -0.9808 0.0000
vn -0.5556 0.8315 0.0000
vn 0.5556 -0.8315 0.0000
vn -0.8315 0.5556 0.0000
vn 0.8315 -0.5556 0.0000
vn -0.9808 0.1951 0.0000
vn 0.9808 -0.1951 0.0000
vn -0.9808 -0.1951 0.0000
vn 0.9808 0.1951 0.0000
vn -0.8315 -0.5556 0.0000
vn 0.8315 0.5556 0.0000
vn -0.5556 -0.8315 0.0000
vn -0.6071 0.1208 0.7854
vn -0.4973 -0.7442 0.4460
vn 0.4973 0.7442 0.4460
vn -0.1746 -0.8778 0.4460
vn -0.1746 0.8778 0.4460
vn 0.1746 0.8778 0.4460
vn 0.1746 -0.8778 0.4460
vn -0.4973 0.7442 0.4460
vn 0.4973 -0.7442 0.4460
vn -0.7442 0.4973 0.4460
vn 0.7442 -0.4973 0.4460
vn -0.8778 0.1746 0.4460
vn 0.8778 -0.1746 0.4460
vn -0.8778 -0.1746 0.4460
vn 0.8778 0.1746 0.4460
vn -0.7442 -0.4973 0.4460
vn 0.6071 -0.1208 0.7854
vn -0.6071 -0.1208 0.7854
vn 0.6071 0.1208 0.7854
vn -0.5147 -0.3439 0.7854
vn 0.5147 0.3439 0.7854
vn -0.3439 -0.5147 0.7854
vn 0.3439 0.5147 0.7854
vn -0.1208 -0.6071 0.7854
vn -0.1208 0.6071 0.7854
vn 0.1208 0.6071 0.7854
vn 0.1208 -0.6071 0.7854
vn -0.3439 0.5147 0.7854
vn 0.3439 -0.5147 0.7854
vn -0.5147 0.3439 0.7854
vn 0.5147 -0.3439 0.7854
vn 0.0000 0.0000 1.0000
vn 0.0001 0.0000 1.0000
usemtl Material.002
s off
f 49/63/15 47/64/15 55/65/15
f 75/66/16 90/67/16 74/68/16
f 60/69/17 75/66/17 59/70/17
f 53/71/18 68/72/18 52/73/18
f 46/74/19 62/75/19 45/76/19
f 45/76/20 76/77/20 60/69/20
f 54/78/21 69/79/21 53/71/21
f 47/64/22 61/80/22 46/74/22
f 55/65/23 70/81/23 54/78/23
f 48/82/24 63/83/24 47/64/24
f 56/84/25 71/85/25 55/65/25
f 49/63/26 64/86/26 48/82/26
f 57/87/27 72/88/27 56/84/27
f 50/89/28 65/90/28 49/63/28
f 58/91/29 73/92/29 57/87/29
f 51/93/30 66/94/30 50/89/30
f 59/70/31 74/68/31 58/91/31
f 52/73/32 67/95/32 51/93/32
f 80/96/33 113/97/33 112/98/33
f 68/72/34 83/99/34 67/95/34
f 76/77/35 91/100/35 75/66/35
f 69/79/36 84/101/36 68/72/36
f 61/80/37 78/102/37 62/75/37
f 62/75/38 92/103/38 76/77/38
f 69/79/39 86/104/39 85/105/39
f 63/83/40 77/106/40 61/80/40
f 71/85/41 86/104/41 70/81/41
f 64/86/42 79/107/42 63/83/42
f 71/85/43 88/108/43 87/109/43
f 64/86/44 81/110/44 80/96/44
f 73/92/45 88/108/45 72/88/45
f 66/94/46 81/110/46 65/90/46
f 74/68/47 89/111/47 73/92/47
f 67/95/48 82/112/48 66/94/48
f 96/113/24 127/114/24 95/115/24
f 89/111/49 120/116/49 88/108/49
f 82/112/50 113/97/50 81/110/50
f 90/67/51 121/117/51 89/111/51
f 82/112/52 115/118/52 114/119/52
f 91/100/53 122/120/53 90/67/53
f 84/101/54 115/118/54 83/99/54
f 91/100/55 124/121/55 123/122/55
f 85/105/56 116/123/56 84/101/56
f 77/106/57 110/124/57 78/102/57
f 78/102/58 124/121/58 92/103/58
f 86/104/59 117/125/59 85/105/59
f 79/107/60 109/126/60 77/106/60
f 86/104/61 119/127/61 118/128/61
f 80/96/62 111/129/62 79/107/62
f 87/109/63 120/116/63 119/127/63
f 94/130/64 109/126/64 93/131/64
f 95/115/64 109/126/64 111/129/64
f 95/115/64 112/98/64 96/113/64
f 97/132/64 112/98/64 113/97/64
f 97/132/64 114/119/64 98/133/64
f 98/133/64 115/118/64 99/134/64
f 99/134/64 116/123/64 100/135/64
f 101/136/64 116/123/64 117/125/64
f 101/136/64 118/128/64 102/137/64
f 102/137/64 119/127/64 103/138/64
f 103/138/64 120/116/64 104/139/64
f 105/140/64 120/116/64 121/117/64
f 105/140/64 122/120/64 106/141/64
f 106/141/64 123/122/64 107/142/64
f 108/143/64 123/122/64 124/121/64
f 108/143/64 110/124/64 94/130/64
f 126/144/64 129/145/64 133/146/64
f 104/139/25 135/147/25 103/138/25
f 97/132/26 128/148/26 96/113/26
f 105/140/27 136/149/27 104/139/27
f 98/133/28 129/145/28 97/132/28
f 106/141/29 137/150/29 105/140/29
f 99/134/30 130/151/30 98/133/30
f 107/142/31 138/152/31 106/141/31
f 100/135/32 131/153/32 99/134/32
f 108/143/17 139/154/17 107/142/17
f 101/136/18 132/155/18 100/135/18
f 93/131/19 126/144/19 94/130/19
f 94/130/20 140/156/20 108/143/20
f 102/137/21 133/146/21 101/136/21
f 95/115/22 125/157/22 93/131/22
f 103/138/23 134/158/23 102/137/23
f 47/64/15 46/74/15 45/76/15
f 45/76/15 60/69/15 59/70/15
f 59/70/15 58/91/15 57/87/15
f 57/87/15 56/84/15 55/65/15
f 55/65/15 54/78/15 53/71/15
f 53/71/15 52/73/15 55/65/15
f 52/73/15 51/93/15 55/65/15
f 51/93/15 50/89/15 49/63/15
f 49/63/15 48/82/15 47/64/15
f 47/64/15 45/76/15 59/70/15
f 59/70/15 57/87/15 47/64/15
f 57/87/15 55/65/15 47/64/15
f 51/93/15 49/63/15 55/65/15
f 75/66/16 91/100/16 90/67/16
f 60/69/17 76/77/17 75/66/17
f 53/71/18 69/79/18 68/72/18
f 46/74/19 61/80/19 62/75/19
f 45/76/20 62/75/20 76/77/20
f 54/78/21 70/81/21 69/79/21
f 47/64/22 63/83/22 61/80/22
f 55/65/23 71/85/23 70/81/23
f 48/82/24 64/86/24 63/83/24
f 56/84/25 72/88/25 71/85/25
f 49/63/26 65/90/26 64/86/26
f 57/87/27 73/92/27 72/88/27
f 50/89/28 66/94/28 65/90/28
f 58/91/29 74/68/29 73/92/29
f 51/93/30 67/95/30 66/94/30
f 59/70/31 75/66/31 74/68/31
f 52/73/32 68/72/32 67/95/32
f 80/96/33 81/110/33 113/97/33
f 68/72/34 84/101/34 83/99/34
f 76/77/35 92/103/35 91/100/35
f 69/79/36 85/105/36 84/101/36
f 61/80/37 77/106/37 78/102/37
f 62/75/38 78/102/38 92/103/38
f 69/79/39 70/81/39 86/104/39
f 63/83/40 79/107/40 77/106/40
f 71/85/41 87/109/41 86/104/41
f 64/86/42 80/96/42 79/107/42
f 71/85/43 72/88/43 88/108/43
f 64/86/44 65/90/44 81/110/44
f 73/92/45 89/111/45 88/108/45
f 66/94/46 82/112/46 81/110/46
f 74/68/47 90/67/47 89/111/47
f 67/95/48 83/99/48 82/112/48
f 96/113/24 128/148/24 127/114/24
f 89/111/49 121/117/49 120/116/49
f 82/112/50 114/119/50 113/97/50
f 90/67/51 122/120/51 121/117/51
f 82/112/52 83/99/52 115/118/52
f 91/100/53 123/122/53 122/120/53
f 84/101/54 116/123/54 115/118/54
f 91/100/55 92/103/55 124/121/55
f 85/105/56 117/125/56 116/123/56
f 77/106/57 109/126/57 110/124/57
f 78/102/58 110/124/58 124/121/58
f 86/104/59 118/128/59 117/125/59
f 79/107/60 111/129/60 109/126/60
f 86/104/61 87/109/61 119/127/61
f 80/96/62 112/98/62 111/129/62
f 87/109/63 88/108/63 120/116/63
f 94/130/64 110/124/64 109/126/64
f 95/115/64 93/131/64 109/126/64
f 95/115/64 111/129/64 112/98/64
f 97/132/64 96/113/64 112/98/64
f 97/132/64 113/97/64 114/119/64
f 98/133/64 114/119/64 115/118/64
f 99/134/64 115/118/64 116/123/64
f 101/136/64 100/135/64 116/123/64
f 101/136/64 117/125/64 118/128/64
f 102/137/64 118/128/64 119/127/64
f 103/138/64 119/127/64 120/116/64
f 105/140/64 104/139/64 120/116/64
f 105/140/64 121/117/64 122/120/64
f 106/141/64 122/120/64 123/122/64
f 108/143/64 107/142/64 123/122/64
f 108/143/64 124/121/64 110/124/64
f 126/144/64 125/157/64 129/145/64
f 125/157/65 127/114/65 129/145/65
f 127/114/64 128/148/64 129/145/64
f 129/145/64 130/151/64 133/146/64
f 130/151/64 131/153/64 133/146/64
f 131/153/64 132/155/64 133/146/64
f 133/146/64 134/158/64 135/147/64
f 135/147/64 136/149/64 133/146/64
f 136/149/64 137/150/64 133/146/64
f 137/150/65 138/152/65 139/154/65
f 139/154/64 140/156/64 126/144/64
f 137/150/64 139/154/64 133/146/64
f 139/154/64 126/144/64 133/146/64
f 104/139/25 136/149/25 135/147/25
f 97/132/26 129/145/26 128/148/26
f 105/140/27 137/150/27 136/149/27
f 98/133/28 130/151/28 129/145/28
f 106/141/29 138/152/29 137/150/29
f 99/134/30 131/153/30 130/151/30
f 107/142/31 139/154/31 138/152/31
f 100/135/32 132/155/32 131/153/32
f 108/143/17 140/156/17 139/154/17
f 101/136/18 133/146/18 132/155/18
f 93/131/19 125/157/19 126/144/19
f 94/130/20 126/144/20 140/156/20
f 102/137/21 134/158/21 133/146/21
f 95/115/22 127/114/22 125/157/22
f 103/138/23 135/147/23 134/158/23
