# Blender v2.80 (sub 75) OBJ File: 'toiletSquare.blend'
# www.blender.org
mtllib toiletSquare.mtl
o toiletSquare
v -0.786106 0.698927 -0.000000
v -0.786105 -0.699967 -0.000000
v -0.609311 -0.626737 0.285760
v -0.609311 0.625696 0.285760
v -0.513095 -0.972978 -0.000000
v -0.439864 -0.796183 0.285760
v -0.513095 0.971937 -0.000000
v -0.439864 0.795143 0.285760
v 1.474532 -0.699967 -0.000000
v 1.474531 0.698927 -0.000000
v 1.297737 0.625696 0.285760
v 1.297737 -0.626736 0.285760
v 1.128290 0.795143 0.285760
v 1.201521 0.971938 -0.000000
v 1.201521 -0.972977 -0.000000
v 1.128291 -0.796183 0.285760
v 0.996857 0.457620 1.261720
v 0.996858 -0.458660 1.261720
v 1.318310 -0.684311 1.821720
v 1.318309 0.683271 1.821720
v 0.930556 -0.524962 1.261720
v 1.219351 -0.783269 1.821720
v -0.530926 -0.783270 1.821720
v -0.242130 -0.524962 1.261720
v -0.308432 -0.458661 1.261720
v -0.308432 0.457620 1.261720
v -0.242130 0.523922 1.261720
v 0.930555 0.523922 1.261720
v 1.219351 0.782230 1.821720
v -0.629884 0.683271 1.821720
v -0.629883 -0.684312 1.821720
v -0.530926 0.782229 1.821720
v -1.525974 -0.554181 1.821720
v -1.525974 -0.964961 1.821720
v -1.525974 -1.143561 3.250520
v -1.525974 0.553139 1.821720
v -1.525974 0.963919 1.821720
v -1.525975 1.142519 3.250520
v -1.525974 -0.625621 3.250520
v -1.525974 0.624579 3.250520
v -1.525974 0.553139 1.535959
v -1.525974 -0.554181 1.535959
v -0.811574 0.553140 1.821720
v -0.811574 0.553140 1.535960
v -0.990175 0.553139 1.821720
v -0.811574 -0.554181 1.535960
v -0.811574 -0.554181 1.821720
v -0.990174 -0.554181 1.821720
v -0.990175 0.963920 1.821720
v -0.990175 1.142520 3.250520
v -0.990174 -0.964961 1.821720
v -0.990175 -0.686968 3.016431
v -0.990175 -0.686968 3.159311
v -0.990175 -0.829848 3.159311
v -0.990175 -0.829848 3.016431
v -0.990174 -1.143561 3.250520
v -0.918734 -1.215001 3.250520
v -1.597414 -1.215001 3.250520
v -1.597414 -0.625621 3.250520
v -1.597414 0.624579 3.250520
v -1.597414 1.213959 3.250520
v -0.918735 1.213960 3.250520
v -0.918734 -1.215001 3.607719
v -1.597414 -1.215001 3.607719
v -0.811574 -0.759570 1.821720
v 1.294610 -0.964960 1.821720
v 1.500000 -0.759570 1.821720
v 1.500000 0.758530 1.821720
v 1.294609 0.963920 1.821720
v -0.606185 0.963920 1.821720
v -0.606184 -0.964960 1.821720
v -0.811574 0.758529 1.821720
v -1.597414 1.213959 3.607719
v -1.597414 -0.625621 3.607719
v -1.597414 0.624579 3.607719
v -0.918735 1.213960 3.607719
v 1.057011 -0.723850 0.893000
v -0.368585 -0.723850 0.893000
v 1.057010 0.722810 0.893000
v -0.368585 0.722809 0.893000
v 1.211053 0.568767 0.893000
v 1.500000 -0.759570 1.464520
v 1.500000 0.758530 1.464520
v -0.522627 0.568767 0.893000
v 1.211053 -0.569807 0.893000
v -0.522627 -0.569808 0.893000
v -0.811574 0.758529 1.464520
v -0.811574 -0.759570 1.464520
v 1.294610 0.963920 1.464520
v -0.606185 0.963920 1.464520
v -0.606184 -0.964960 1.464520
v 1.294610 -0.964960 1.464520
v -0.847294 -1.044168 3.087871
v -0.954454 -1.044168 3.087871
v -0.954454 -0.829848 3.052151
v -0.847294 -0.829848 3.052151
v -0.847294 -1.044168 3.159311
v -0.954454 -1.044168 3.159311
v -0.847294 -0.829848 3.016431
v -0.847294 -0.686968 3.016431
v -0.954454 -0.829848 3.159311
v -0.847294 -0.686968 3.159311
v 1.318309 0.683272 1.821720
v 1.318310 -0.684311 1.821720
v 1.219352 -0.783269 1.821720
v 1.219351 0.782231 1.821720
v -0.530926 0.782229 1.821720
v -0.530926 -0.783270 1.821720
v -0.629884 0.683271 1.821720
v -0.629883 -0.684312 1.821720
v 1.201418 -0.602256 1.981720
v 1.201418 0.601217 1.981720
v 1.114335 0.688300 1.981720
v 1.114335 -0.689339 1.981720
v -0.425909 0.688300 1.981720
v -0.425909 -0.689340 1.981720
v -0.512992 0.601216 1.981720
v -0.512992 -0.602257 1.981720
vt -9.418932 -5.919229
vt -2.534612 -5.919229
vt -2.894999 -4.265546
vt -7.847485 -3.242576
vt -8.207872 -1.588894
vt -9.387173 -1.588894
vt -0.604946 -7.689649
vt 1.295128 -7.689649
vt 0.934741 -6.035966
vt -0.244559 -6.035966
vt 9.906964 -5.662461
vt 9.546576 -4.008778
vt 1.829279 -4.008778
vt 7.109203 -1.803810
vt 6.748816 -3.457493
vt 8.648891 -3.457493
vt 8.288504 -1.803810
vt -9.906964 0.626650
vt -1.468892 0.626650
vt -1.829279 2.280332
vt -9.546576 2.280332
vt 1.343228 2.643262
vt 0.163927 2.643262
vt -0.196460 0.989580
vt -0.881091 2.617629
vt -0.419648 2.617629
vt -0.525743 5.967199
vt 3.722145 8.899762
vt 3.395855 8.573473
vt 3.395855 2.802383
vt 3.722145 2.476094
vt 8.231399 8.899762
vt 8.231399 2.476094
vt 8.557688 8.573473
vt -7.926689 10.771420
vt -8.032784 7.421850
vt -7.571341 7.421850
vt 8.925035 7.189672
vt 9.258409 10.539240
vt 8.569688 10.539240
vt -0.472604 11.993890
vt -0.011161 11.993890
vt -0.117256 15.343460
vt -0.805977 15.343460
vt -2.802383 9.222745
vt -1.381145 12.257700
vt -9.994711 12.257700
vt -8.573473 9.222745
vt -3.252067 8.965158
vt -1.230512 8.965158
vt -0.351575 15.996650
vt -11.601970 15.996650
vt -10.723030 8.965158
vt -2.900492 15.996650
vt -9.053051 15.996650
vt -8.701476 7.558858
vt -3.252067 7.558858
vt 11.375860 8.965158
vt 11.375860 7.558858
vt 14.891600 7.558858
vt -3.252067 11.375860
vt -3.252067 14.891600
vt -8.701476 14.891600
vt -8.701476 11.375860
vt -12.254790 8.965158
vt -14.891600 8.965158
vt -14.891600 7.558858
vt 11.601970 15.996650
vt 1.230512 8.965158
vt 3.252067 8.965158
vt 2.598587 14.844640
vt 1.895438 14.844640
vt 0.351575 15.996650
vt 1.895438 15.547790
vt -9.053051 15.243180
vt -11.953540 15.243180
vt -9.053051 14.891600
vt -11.601970 14.891600
vt -0.000000 11.903220
vt -0.351575 14.891600
vt -0.351575 12.254790
vt -11.953540 11.903220
vt -11.601970 12.254790
vt -15.243180 17.754530
vt -15.243180 15.996650
vt -11.903220 15.996650
vt 8.701476 12.254790
vt 3.252067 12.254790
vt 3.252067 11.375860
vt 9.341887 10.481710
vt 8.701476 11.375860
vt 1.230512 1.010778
vt 2.124657 9.994711
vt 2.241289 11.375860
vt 2.124657 1.381145
vt 2.241289 -0.000000
vt 2.611657 0.894145
vt 9.712254 0.000000
vt 9.341887 0.894145
vt 1.230512 10.365080
vt 9.828886 9.994711
vt 9.712254 11.375860
vt -2.900492 15.996650
vt -0.000000 15.996650
vt -0.000000 17.754530
vt -11.953540 15.996650
vt -9.053051 15.996650
vt -2.900492 17.754530
vt -11.953540 17.754530
vt 12.254790 17.312170
vt 12.254790 10.225960
vt 14.891600 10.225960
vt 14.891600 17.312170
vt -10.723030 14.891600
vt -10.723030 12.254790
vt -8.701476 12.254790
vt 11.903220 17.754530
vt 11.903220 15.996650
vt 15.243180 15.996650
vt 15.243180 17.754530
vt -2.180065 4.649730
vt -9.195790 4.649730
vt -9.546576 1.640218
vt 7.212748 3.476510
vt 7.109203 0.446625
vt 8.288504 0.446625
vt 8.284839 3.476510
vt 9.712254 8.965158
vt 2.241289 8.965158
vt 2.241289 7.207283
vt -10.762490 9.906964
vt -10.762490 1.468892
vt -9.418932 0.125336
vt -0.244559 -0.880150
vt 0.934741 -0.880150
vt 0.831197 2.149735
vt -0.240894 2.149735
vt -8.207872 0.514001
vt -8.211537 3.543886
vt -9.283628 3.543886
vt 2.894999 1.532852
vt 9.058544 1.532852
vt 8.778383 4.551533
vt -9.058544 -0.074763
vt -2.894999 -0.074763
vt -3.175160 2.943917
vt -2.241289 7.207283
vt -2.241289 8.965158
vt -3.252067 7.558858
vt -3.252067 8.965158
vt -8.701476 7.558858
vt -8.701476 8.965158
vt -9.712254 8.965158
vt -9.283628 6.223894
vt -8.211537 6.223894
vt -8.199321 9.492798
vt -9.628776 9.492798
vt 0.167592 2.124685
vt 1.239684 2.124685
vt 1.584831 5.393589
vt 9.712254 6.431981
vt 2.241289 6.431981
vt 3.175160 3.280355
vt 2.180065 7.755935
vt 9.195790 7.755935
vt 10.365080 10.808580
vt 7.212748 6.432060
vt 8.284839 6.432060
vt 8.297056 9.700963
vt -8.778383 8.413028
vt -3.175160 8.413028
vt -2.241289 11.564650
vt -9.712254 11.564650
vt 0.155376 7.207283
vt 1.584831 7.207283
vt 1.584831 8.965158
vt 0.155376 8.965158
vt -8.199321 7.207283
vt -8.199321 8.965158
vt -9.628776 8.965158
vt -9.628776 7.207283
vt 10.365080 7.207283
vt 10.365080 8.965158
vt 1.010778 8.965158
vt -9.058544 -4.265546
vt -9.747560 -3.242576
vt 2.534612 0.065943
vt 9.418932 0.065943
vt 9.058544 1.719626
vt 2.894999 1.719626
vt 1.468892 -5.662461
vt 1.703615 0.989580
vt -8.231399 4.152435
vt -3.722145 4.152435
vt -2.611657 7.330103
vt -9.341887 7.330103
vt -1.214464 5.967199
vt 9.994711 7.250934
vt 1.381145 7.250934
vt 2.802383 4.215978
vt 8.573473 4.215978
vt 8.557688 2.802383
vt -7.237968 10.771420
vt 3.722145 9.815711
vt 8.231399 9.815711
vt 9.341887 12.993380
vt 2.611657 12.993380
vt 8.463593 7.189672
vt -8.701476 8.965158
vt 12.254790 8.965158
vt 14.891600 8.965158
vt -11.375860 7.558858
vt -11.375860 8.965158
vt 8.701476 8.965158
vt 10.723030 8.965158
vt 2.598587 15.547790
vt 0.000000 15.243180
vt -2.900492 15.243180
vt -2.900492 14.891600
vt -12.254790 8.743301
vt -12.254790 15.829520
vt -14.891600 15.829520
vt -14.891600 8.743301
vt -1.230512 12.254790
vt -1.230512 14.891600
vt -3.252067 14.891600
vt -3.252067 12.254790
vt -11.903220 17.754530
vt 2.611657 10.481710
vt 9.828886 1.381145
vt 10.723030 1.010778
vt 10.723030 10.365080
vt -9.053051 17.754530
vt 2.900492 15.243180
vt 0.000000 15.243180
vt 0.000000 11.903220
vt 11.953540 11.903220
vt 9.053051 15.243180
vt 11.953540 15.243180
vt 0.000000 15.996650
vt 11.953540 15.996650
vt 11.953540 17.754530
vt 0.000000 17.754530
vt -8.701476 14.891600
vt -1.829279 1.640218
vt 2.180065 3.235848
vt 1.829279 0.226335
vt 9.546576 0.226335
vt 9.195790 3.235848
vt 9.712254 7.207283
vt -1.191056 1.468892
vt -1.191056 9.906964
vt -2.534612 11.250520
vt -2.534612 0.125336
vt -9.418932 11.250520
vt 0.163927 1.840777
vt 1.343228 1.840777
vt 1.239684 4.870661
vt 0.167592 4.870661
vt -9.387173 0.514001
vt 3.175160 4.551533
vt -8.778383 2.943917
vt -9.712254 7.207283
vt 6.867600 8.965158
vt 6.867600 7.207283
vt 8.297056 7.207283
vt 8.297056 8.965158
vt -0.240894 10.531270
vt 0.831197 10.531270
vt 1.176344 13.800170
vt -0.253111 13.800170
vt 0.155376 5.393589
vt 8.778383 3.280355
vt -2.180065 3.109586
vt -1.010778 6.162232
vt -10.365080 6.162232
vt -9.195790 3.109586
vt 1.010778 10.808580
vt 6.867600 9.700963
vt -0.253111 7.207283
vt 1.176344 7.207283
vt 1.176344 8.965158
vt -0.253111 8.965158
vt -1.010778 7.207283
vt -1.010778 8.965158
vt -10.365080 8.965158
vt -10.365080 7.207283
vt 1.010778 7.207283
vt 9.587564 -3.365115
vt 9.587564 3.365115
vt 9.100565 3.852114
vt 9.100565 -3.852114
vt 0.486999 -3.852114
vt 0.486999 3.852114
vt 0.000000 -3.365115
vt 0.000000 3.365115
vt -9.012311 2.961301
vt -9.012311 -2.961301
vt -8.583752 -3.389861
vt -8.583752 3.389861
vt -1.003813 -3.389861
vt -1.003813 3.389861
vt -0.575254 -2.961301
vt -0.575254 2.961301
vt -8.583752 -1.037143
vt -9.100565 -1.950204
vt -0.486999 -1.950204
vt -1.003813 -1.037143
vt 0.486999 -1.950204
vt 9.100565 -1.950204
vt 8.583752 -1.037143
vt 1.003813 -1.037143
vt -2.500722 -0.522714
vt -3.106797 -0.522714
vt -3.068217 -1.571183
vt -2.379496 -1.571183
vt -4.278710 -4.999180
vt -4.399936 -6.047649
vt -3.711215 -6.047649
vt -3.672636 -4.999180
vt -3.365115 -5.655829
vt 3.365115 -5.655829
vt 2.961301 -4.680678
vt -2.961301 -4.680678
vt 3.068217 -1.571183
vt 3.106797 -0.522714
vt 2.500722 -0.522714
vt 2.379496 -1.571183
vt -2.961301 0.975150
vt -3.365115 0.000000
vt 3.365115 0.000000
vt 2.961301 0.975150
vt 3.711215 -6.047649
vt 4.399936 -6.047649
vt 4.278710 -4.999180
vt 3.672636 -4.999180
vt -12.079010 0.599695
vt -11.551640 0.599695
vt -11.551640 1.668968
vt -2.598587 12.254790
vt -2.598587 11.551640
vt -1.895438 11.551640
vt -0.840713 15.196220
vt -0.840713 15.547790
vt -1.895438 15.547790
vt -12.079010 15.020430
vt -12.079010 15.547790
vt -12.254790 15.547790
vt -12.254790 14.844640
vt -11.551640 14.844640
vt -11.551640 15.020430
vt 1.895438 12.079010
vt 0.840713 12.079010
vt 0.840713 11.551640
vt 2.598587 11.551640
vt 1.895438 12.254790
vt 2.598587 12.254790
vt 12.254790 14.844640
vt 12.254790 15.547790
vt 11.551640 15.547790
vt 1.895438 14.844640
vt 2.598587 14.844640
vt 2.598587 15.547790
vt 1.895438 15.020430
vt -12.079010 1.668968
vt -11.551640 15.196220
vt -11.551640 15.547790
vt -12.079010 15.547790
vt -12.079010 15.196220
vt -1.895438 12.254790
vt -1.895438 15.020430
vt 11.551640 14.844640
vt 0.840713 15.196220
vt 0.840713 15.547790
vn -0.8504 -0.0000 0.5261
vn -0.6013 -0.6013 0.5261
vn -0.6013 0.6013 0.5261
vn -0.0000 0.8504 0.5261
vn 0.6013 0.6013 0.5261
vn 0.0000 -0.8504 0.5261
vn 0.6013 -0.6013 0.5261
vn -0.5818 0.5818 0.5684
vn -0.0000 -0.0000 1.0000
vn -0.5818 -0.5818 0.5684
vn 0.5818 0.5818 0.5684
vn 0.5818 -0.5818 0.5684
vn 0.0000 -0.9081 0.4189
vn -1.0000 -0.0000 -0.0000
vn -0.9321 0.0000 0.3621
vn 0.9991 0.0000 0.0428
vn -0.0000 1.0000 0.0000
vn 0.0000 0.0000 -1.0000
vn 0.0000 -1.0000 0.0000
vn 1.0000 0.0000 0.0000
vn -0.9866 0.0000 -0.1630
vn -0.0000 0.9923 -0.1240
vn 0.0000 -0.9930 0.1183
vn 0.6974 0.6974 0.1649
vn -0.6974 0.6974 0.1649
vn -0.6974 -0.6974 0.1649
vn 0.9900 0.0000 0.1413
vn -0.9900 -0.0000 0.1413
vn -0.6084 -0.6084 -0.5096
vn 0.6084 -0.6084 -0.5096
vn 0.8924 0.0000 -0.4512
vn -0.0000 0.9214 -0.3887
vn 0.6084 0.6084 -0.5096
vn -0.8924 -0.0000 -0.4512
vn 0.7071 -0.7071 0.0000
vn -0.7071 -0.7071 -0.0000
vn 0.8504 0.0000 0.5261
vn -0.8673 -0.0000 0.4978
vn -0.0000 0.9081 0.4189
vn 0.8673 0.0000 0.4978
vn 0.0000 -0.9923 -0.1240
vn 0.9866 0.0000 0.1630
vn -0.0000 0.9930 0.1183
vn 0.6974 -0.6974 0.1649
vn 0.7071 0.7071 0.0000
vn -0.6084 0.6084 -0.5096
vn 0.0000 -0.9214 -0.3887
vn -0.7071 0.7071 -0.0000
vn -0.0000 0.8624 0.5063
vn 0.0000 -0.8624 0.5063
vn -0.5310 0.5310 0.6603
vn 0.5310 0.5310 0.6603
vn 0.8075 0.0000 0.5899
vn -0.5310 -0.5310 0.6603
vn -0.8075 -0.0000 0.5899
vn 0.5310 -0.5310 0.6603
vn 0.0000 -0.1644 -0.9864
usemtl carpetWhite
s 1
f 1/1/1 2/2/1 3/3/1
f 5/4/2 6/5/2 3/6/2
f 7/7/3 1/8/3 4/9/3
f 4/9/3 8/10/3 7/7/3
f 7/11/4 8/12/4 13/13/4
f 11/14/5 10/15/5 14/16/5
f 14/16/5 13/17/5 11/14/5
f 5/18/6 15/19/6 16/20/6
f 16/20/6 6/21/6 5/18/6
f 12/22/7 16/23/7 15/24/7
f 18/25/8 21/26/8 22/27/8
f 25/28/9 24/29/9 21/30/9
f 21/30/9 18/31/9 25/28/9
f 18/31/9 26/32/9 25/28/9
f 17/33/9 27/34/9 26/32/9
f 29/35/10 28/36/10 17/37/10
f 25/38/11 31/39/11 23/40/11
f 26/41/12 27/42/12 32/43/12
f 32/43/12 30/44/12 26/41/12
f 28/45/13 29/46/13 32/47/13
f 32/47/13 27/48/13 28/45/13
f 33/49/14 34/50/14 35/51/14
f 35/51/14 38/52/14 37/53/14
f 39/54/15 40/55/16 38/52/14
f 41/56/14 42/57/14 33/49/14
f 43/58/17 44/59/17 41/60/17
f 46/61/18 42/62/18 41/63/18
f 41/63/18 44/64/18 46/61/18
f 48/65/19 33/66/19 42/67/19
f 50/68/20 51/69/20 48/70/20
f 50/68/20 52/71/20 51/69/20
f 51/69/20 52/71/20 55/72/20
f 55/72/20 56/73/20 51/69/20
f 55/72/20 54/74/20 56/73/20
f 60/75/18 61/76/18 40/77/18
f 61/76/18 38/78/18 40/77/18
f 57/79/18 35/80/18 56/81/18
f 56/81/18 62/82/18 57/79/18
f 56/81/18 50/83/18 62/82/18
f 64/84/19 58/85/19 57/86/19
f 45/87/9 48/88/9 47/89/9
f 30/90/9 43/91/9 47/89/9
f 66/92/9 23/93/9 65/94/9
f 22/95/9 23/93/9 66/92/9
f 67/96/9 19/97/9 22/95/9
f 67/96/9 68/98/9 19/97/9
f 68/98/9 20/99/9 19/97/9
f 65/94/9 71/100/9 66/92/9
f 30/90/9 32/101/9 72/102/9
f 59/103/14 58/104/14 64/105/14
f 64/105/14 61/106/14 60/107/14
f 64/105/14 74/108/21 73/109/14
f 50/110/22 49/111/22 37/112/22
f 37/112/22 38/113/22 50/110/22
f 37/114/18 49/115/18 45/116/18
f 76/117/17 62/118/17 61/119/17
f 61/119/17 73/120/17 76/117/17
f 77/121/23 78/122/23 6/123/23
f 81/124/24 11/125/24 13/126/24
f 13/126/24 79/127/24 81/124/24
f 68/128/20 67/129/20 82/130/20
f 7/131/18 14/132/18 10/133/18
f 8/134/25 4/135/25 84/136/25
f 84/136/25 80/137/25 8/134/25
f 6/138/26 78/139/26 86/140/26
f 12/141/27 11/142/27 81/143/27
f 4/144/28 3/145/28 86/146/28
f 88/147/14 65/148/14 46/149/14
f 65/148/14 47/150/14 46/149/14
f 44/151/14 43/152/14 72/153/14
f 86/154/29 78/155/29 91/156/29
f 91/156/29 88/157/29 86/154/29
f 77/158/30 85/159/30 82/160/30
f 83/161/31 82/162/31 85/163/31
f 79/164/32 80/165/32 90/166/32
f 81/167/33 79/168/33 89/169/33
f 84/170/34 86/171/34 88/172/34
f 88/172/34 87/173/34 84/170/34
f 92/174/35 82/175/35 67/176/35
f 67/176/35 66/177/35 92/174/35
f 91/178/36 71/179/36 65/180/36
f 65/180/36 88/181/36 91/178/36
f 90/182/17 70/183/17 69/184/17
f 3/3/1 4/185/1 1/1/1
f 3/6/2 2/186/2 5/4/2
f 9/187/37 10/188/37 11/189/37
f 11/189/37 12/190/37 9/187/37
f 13/13/4 14/191/4 7/11/4
f 15/24/7 9/192/7 12/22/7
f 17/193/38 18/194/38 19/195/38
f 19/195/38 20/196/38 17/193/38
f 22/27/8 19/197/8 18/25/8
f 23/198/39 22/199/39 21/200/39
f 21/200/39 24/201/39 23/198/39
f 18/31/9 17/33/9 26/32/9
f 17/33/9 28/202/9 27/34/9
f 17/37/10 20/203/10 29/35/10
f 25/204/40 26/205/40 30/206/40
f 30/206/40 31/207/40 25/204/40
f 23/40/11 24/208/11 25/38/11
f 35/51/14 36/209/14 33/49/14
f 35/51/14 37/53/14 36/209/14
f 35/51/14 39/54/15 38/52/14
f 33/49/14 36/209/14 41/56/14
f 41/60/17 45/210/17 43/58/17
f 41/60/17 36/211/17 45/210/17
f 46/212/19 47/213/19 48/65/19
f 48/65/19 42/67/19 46/212/19
f 45/214/20 49/215/20 50/68/20
f 50/68/20 48/70/20 45/214/20
f 50/68/20 53/216/20 52/71/20
f 50/68/20 54/74/20 53/216/20
f 54/74/20 50/68/20 56/73/20
f 35/80/18 57/79/18 58/217/18
f 58/217/18 59/218/18 35/80/18
f 59/218/18 39/219/18 35/80/18
f 59/218/18 60/75/18 39/219/18
f 60/75/18 40/77/18 39/219/18
f 61/76/18 50/83/18 38/78/18
f 50/83/18 61/76/18 62/82/18
f 51/220/41 56/221/41 35/222/41
f 35/222/41 34/223/41 51/220/41
f 51/224/18 34/225/18 33/226/18
f 33/226/18 48/227/18 51/224/18
f 57/86/19 63/228/19 64/84/19
f 47/89/9 43/91/9 45/87/9
f 31/229/9 30/90/9 47/89/9
f 31/229/9 47/89/9 65/94/9
f 23/93/9 31/229/9 65/94/9
f 66/92/9 67/96/9 22/95/9
f 68/98/9 29/230/9 20/99/9
f 68/98/9 69/231/9 29/230/9
f 69/231/9 70/232/9 29/230/9
f 30/90/9 72/102/9 43/91/9
f 32/101/9 70/232/9 72/102/9
f 32/101/9 29/230/9 70/232/9
f 64/105/14 60/107/14 59/103/14
f 64/105/14 73/109/14 61/106/14
f 74/108/21 75/233/42 73/109/14
f 74/234/9 64/235/9 63/236/9
f 63/236/9 76/237/9 74/234/9
f 76/237/9 75/238/9 74/234/9
f 76/237/9 73/239/9 75/238/9
f 57/240/20 62/241/20 76/242/20
f 76/242/20 63/243/20 57/240/20
f 45/116/18 36/244/18 37/114/18
f 6/123/23 16/245/23 77/121/23
f 79/246/43 13/247/43 8/248/43
f 8/248/43 80/249/43 79/246/43
f 82/130/20 83/250/20 68/128/20
f 15/251/18 5/252/18 2/253/18
f 2/253/18 9/254/18 15/251/18
f 2/253/18 1/255/18 9/254/18
f 1/255/18 10/133/18 9/254/18
f 1/255/18 7/131/18 10/133/18
f 16/256/44 12/257/44 85/258/44
f 85/258/44 77/259/44 16/256/44
f 86/140/26 3/260/26 6/138/26
f 81/143/27 85/261/27 12/141/27
f 86/146/28 84/262/28 4/144/28
f 46/149/14 87/263/14 88/147/14
f 87/263/14 46/149/14 44/151/14
f 44/151/14 72/153/14 87/263/14
f 68/264/45 83/265/45 89/266/45
f 89/266/45 69/267/45 68/264/45
f 80/268/46 84/269/46 87/270/46
f 87/270/46 90/271/46 80/268/46
f 82/160/30 92/272/30 77/158/30
f 85/163/31 81/273/31 83/161/31
f 77/274/47 92/275/47 91/276/47
f 91/276/47 78/277/47 77/274/47
f 90/166/32 89/278/32 79/164/32
f 89/169/33 83/279/33 81/167/33
f 90/280/48 87/281/48 72/282/48
f 72/282/48 70/283/48 90/280/48
f 92/284/19 66/285/19 71/286/19
f 71/286/19 91/287/19 92/284/19
f 69/184/17 89/288/17 90/182/17
f 103/289/18 104/290/18 105/291/18
f 105/291/18 106/292/18 103/289/18
f 105/291/18 107/293/18 106/292/18
f 105/291/18 108/294/18 107/293/18
f 108/294/18 109/295/18 107/293/18
f 108/294/18 110/296/18 109/295/18
f 111/297/9 112/298/9 113/299/9
f 113/299/9 114/300/9 111/297/9
f 113/299/9 115/301/9 114/300/9
f 115/301/9 116/302/9 114/300/9
f 115/301/9 117/303/9 116/302/9
f 117/303/9 118/304/9 116/302/9
f 113/305/49 106/306/49 107/307/49
f 107/307/49 115/308/49 113/305/49
f 108/309/50 105/310/50 114/311/50
f 114/311/50 116/312/50 108/309/50
f 117/313/51 115/314/51 107/315/51
f 107/315/51 109/316/51 117/313/51
f 112/317/52 103/318/52 106/319/52
f 106/319/52 113/320/52 112/317/52
f 104/321/53 103/322/53 112/323/53
f 112/323/53 111/324/53 104/321/53
f 108/325/54 116/326/54 118/327/54
f 118/327/54 110/328/54 108/325/54
f 117/329/55 109/330/55 110/331/55
f 110/331/55 118/332/55 117/329/55
f 105/333/56 104/334/56 111/335/56
f 111/335/56 114/336/56 105/333/56
usemtl metalLight
f 95/337/57 96/338/57 93/339/57
f 52/340/18 100/341/18 99/342/18
f 94/343/14 98/344/14 101/345/14
f 95/346/19 101/347/19 54/348/19
f 95/346/19 54/348/19 55/349/19
f 99/350/19 96/351/19 95/346/19
f 101/352/9 98/353/9 97/354/9
f 97/354/9 102/355/9 101/352/9
f 54/356/9 101/352/9 53/357/9
f 52/358/17 53/359/17 102/360/17
f 99/361/20 100/362/20 102/363/20
f 102/363/20 96/364/20 99/361/20
f 93/339/57 94/365/57 95/337/57
f 93/366/19 97/367/19 98/368/19
f 98/368/19 94/369/19 93/366/19
f 99/342/18 55/370/18 52/340/18
f 101/345/14 95/371/14 94/343/14
f 95/346/19 55/349/19 99/350/19
f 102/355/9 53/357/9 101/352/9
f 102/360/17 100/372/17 52/358/17
f 102/363/20 93/373/20 96/364/20
f 102/363/20 97/374/20 93/373/20
