# Blender v2.80 (sub 75) OBJ File: 'window.blend'
# www.blender.org
mtllib window.mtl
o Cube
v 1.050000 -1.531042 4.531042
v 1.050000 -1.531042 0.468958
v 1.050000 -2.000000 0.000000
v 1.050000 -2.000000 5.000000
v 1.050000 -2.000000 2.500000
v 0.973963 -1.531042 2.461981
v 1.050000 -2.000000 3.750000
v 1.050000 -1.531042 3.515521
v 1.050000 -1.531042 1.484479
v 1.050000 -2.000000 1.250000
v 0.973963 -1.531042 2.030258
v 1.050000 -2.000000 1.875000
v 1.050000 -1.531042 1.992240
v 1.050000 -1.531042 2.500000
v 0.507390 -1.531042 0.468958
v 0.507390 -1.531042 4.531042
v 1.050000 0.000000 4.531042
v 1.050000 0.000000 0.468958
v 1.050000 1.531042 4.531042
v 1.050000 1.531042 0.468958
v 1.050000 2.000000 0.000000
v 1.050000 2.000000 5.000000
v 1.050000 0.000000 5.000000
v 1.050000 0.000000 0.000000
v 1.050000 2.000000 2.500000
v 0.973963 1.531042 2.461981
v 1.050000 2.000000 3.750000
v 1.050000 1.531042 3.515521
v 1.050000 1.531042 1.484479
v 1.050000 2.000000 1.250000
v 0.973963 1.531042 2.030258
v 1.050000 2.000000 1.875000
v 1.050000 1.531042 1.992240
v 1.050000 1.531042 2.500000
v 0.973963 0.000000 2.030258
v 0.973963 0.000000 2.461981
v 0.507390 1.531042 0.468958
v 0.507390 0.000000 0.468958
v 0.507390 1.531042 4.531042
v 0.507390 0.000000 4.531042
v 0.000000 -2.000000 5.000000
v 0.000000 -2.000000 0.000000
v -1.050000 -1.531042 4.531042
v -1.050000 -1.531042 0.468958
v -1.050000 -2.000000 0.000000
v -1.050000 -2.000000 5.000000
v 0.000000 -1.531042 0.468958
v 0.000000 -1.531042 4.531042
v -1.050000 -2.000000 2.500000
v 0.000000 -2.000000 2.500000
v -0.973963 -1.531042 2.461981
v 0.000000 -1.531042 2.500000
v -1.050000 -2.000000 3.750000
v -1.050000 -1.531042 3.515521
v 0.000000 -2.000000 3.750000
v 0.000000 -1.531042 3.515521
v 0.000000 -1.531042 1.484479
v -1.050000 -1.531042 1.484479
v 0.000000 -2.000000 1.250000
v -1.050000 -2.000000 1.250000
v 0.000000 -1.531042 1.992240
v -0.973963 -1.531042 2.030258
v -1.050000 -2.000000 1.875000
v 0.000000 -2.000000 1.875000
v 0.000000 -1.531042 2.030258
v 0.000000 -1.531042 2.461981
v -1.050000 -1.531042 1.992240
v -1.050000 -1.531042 2.500000
v -0.507390 -1.531042 0.468958
v -0.507390 -1.531042 4.531042
v 0.000000 0.000000 5.000000
v 0.000000 0.000000 0.000000
v -1.050000 0.000000 4.531042
v -1.050000 0.000000 0.468958
v 0.000000 2.000000 5.000000
v 0.000000 2.000000 0.000000
v -1.050000 1.531042 4.531042
v -1.050000 1.531042 0.468958
v -1.050000 2.000000 0.000000
v -1.050000 2.000000 5.000000
v -1.050000 0.000000 5.000000
v -1.050000 0.000000 0.000000
v 0.000000 1.531042 0.468958
v 0.000000 1.531042 4.531042
v 0.000000 0.000000 4.531042
v 0.000000 0.000000 0.468958
v -1.050000 2.000000 2.500000
v 0.000000 2.000000 2.500000
v -0.973963 1.531042 2.461981
v 0.000000 1.531042 2.500000
v -1.050000 2.000000 3.750000
v -1.050000 1.531042 3.515521
v 0.000000 2.000000 3.750000
v 0.000000 1.531042 3.515521
v 0.000000 1.531042 1.484479
v -1.050000 1.531042 1.484479
v 0.000000 2.000000 1.250000
v -1.050000 2.000000 1.250000
v 0.000000 1.531042 1.992240
v -0.973963 1.531042 2.030258
v -1.050000 2.000000 1.875000
v 0.000000 2.000000 1.875000
v 0.000000 1.531042 2.030258
v 0.000000 1.531042 2.461981
v -1.050000 1.531042 1.992240
v -1.050000 1.531042 2.500000
v 0.000000 0.000000 2.030258
v 0.000000 0.000000 2.461981
v -0.973963 0.000000 2.030258
v -0.973963 0.000000 2.461981
v -0.507390 1.531042 0.468958
v -0.507390 0.000000 0.468958
v -0.507390 1.531042 4.531042
v -0.507390 0.000000 4.531042
vt 1.000000 0.000000
vt 0.000000 1.000000
vt 0.000000 0.000000
vt 0.000000 1.000000
vt 0.000000 0.000000
vt 0.000000 1.000000
vt 1.000000 0.000000
vt 0.000000 0.000000
vt 0.000000 1.000000
vt 0.000000 0.000000
vt 1.000000 1.000000
vt 1.000000 1.000000
vt 0.625000 0.000000
vt 0.375000 0.250000
vt 0.375000 0.000000
vt 0.398448 0.279310
vt 0.398448 0.470690
vt 0.398448 0.470690
vt 0.625000 0.500000
vt 0.562500 0.750000
vt 0.562500 0.500000
vt 0.625000 0.750000
vt 0.375000 1.000000
vt 0.375000 0.750000
vt 0.500000 0.500000
vt 0.468750 0.750000
vt 0.468750 0.500000
vt 0.601552 0.470690
vt 0.550776 0.470690
vt 0.474612 0.470690
vt 0.625000 0.250000
vt 0.375000 0.250000
vt 0.500000 0.470690
vt 0.550776 0.470690
vt 0.601552 0.279310
vt 0.601552 0.279310
vt 0.449224 0.470690
vt 0.449224 0.470690
vt 0.601552 0.470690
vt 0.500000 0.750000
vt 0.474612 0.470690
vt 0.437500 0.500000
vt 0.375000 0.500000
vt 0.437500 0.750000
vt 0.498099 0.470690
vt 0.476513 0.470690
vt 0.500000 0.470690
vt 0.476513 0.470690
vt 0.476513 0.470690
vt 0.498099 0.470690
vt 0.498099 0.470690
vt 0.498099 0.470690
vt 0.625000 0.000000
vt 0.398448 0.470690
vt 0.398448 0.470690
vt 0.562500 0.750000
vt 0.625000 0.500000
vt 0.562500 0.500000
vt 0.375000 1.000000
vt 0.375000 0.750000
vt 0.468750 0.750000
vt 0.500000 0.500000
vt 0.468750 0.500000
vt 0.601552 0.470690
vt 0.550776 0.470690
vt 0.474612 0.470690
vt 0.500000 0.470690
vt 0.550776 0.470690
vt 0.449224 0.470690
vt 0.449224 0.470690
vt 0.601552 0.470690
vt 0.500000 0.750000
vt 0.474612 0.470690
vt 0.437500 0.500000
vt 0.375000 0.500000
vt 0.437500 0.750000
vt 0.498099 0.470690
vt 0.476513 0.470690
vt 0.500000 0.470690
vt 0.498099 0.470690
vt 0.476513 0.470690
vt 0.375000 0.250000
vt 0.398448 0.279310
vt 0.398448 0.470690
vt 0.625000 0.500000
vt 0.562500 0.500000
vt 0.375000 1.000000
vt 0.500000 0.500000
vt 0.468750 0.500000
vt 0.601552 0.470690
vt 0.550776 0.470690
vt 0.474612 0.470690
vt 0.500000 0.470690
vt 0.625000 0.250000
vt 0.601552 0.279310
vt 0.375000 0.250000
vt 0.449224 0.470690
vt 0.437500 0.500000
vt 0.375000 0.500000
vt 0.476513 0.470690
vt 0.498099 0.470690
vt 0.476513 0.470690
vt 0.476513 0.470690
vt 0.498099 0.470690
vt 0.398448 0.470690
vt 0.625000 0.500000
vt 0.562500 0.500000
vt 0.375000 1.000000
vt 0.500000 0.500000
vt 0.468750 0.500000
vt 0.601552 0.470690
vt 0.550776 0.470690
vt 0.474612 0.470690
vt 0.500000 0.470690
vt 0.449224 0.470690
vt 0.437500 0.500000
vt 0.375000 0.500000
vt 0.498099 0.470690
vt 0.476513 0.470690
vt 0.625000 0.250000
vt 0.398448 0.279310
vt 0.625000 0.750000
vt 0.625000 1.000000
vt 0.625000 0.250000
vt 0.625000 0.750000
vt 0.625000 0.250000
vt 0.625000 1.000000
vt 0.625000 0.250000
vn 1.0000 0.0000 0.0000
vn -1.0000 0.0000 0.0000
vn 0.0000 0.0000 1.0000
vn 0.0000 -1.0000 0.0000
vn 0.0000 0.0000 -1.0000
vn 0.0000 1.0000 0.0000
usemtl Material.002
s off
f 38/1/1 16/2/1 15/3/1
f 39/4/1 38/1/1 37/5/1
f 70/6/2 112/7/2 69/8/2
f 112/7/2 113/9/2 111/10/2
f 38/1/1 40/11/1 16/2/1
f 39/4/1 40/11/1 38/1/1
f 70/6/2 114/12/2 112/7/2
f 112/7/2 114/12/2 113/9/2
usemtl Material.001
f 41/13/3 23/14/3 71/15/3
f 18/16/3 47/17/3 2/18/3
f 4/19/4 55/20/4 7/21/4
f 72/22/5 3/23/5 42/24/5
f 5/25/4 64/26/4 12/27/4
f 1/28/1 7/21/1 8/29/1
f 13/30/1 5/25/1 12/27/1
f 1/28/1 23/31/1 4/19/1
f 2/18/1 24/32/1 18/16/1
f 14/33/6 56/34/6 8/29/6
f 1/28/5 85/35/5 17/36/5
f 2/18/6 57/37/6 9/38/6
f 8/29/6 48/39/6 1/28/6
f 8/29/1 5/25/1 14/33/1
f 7/21/4 50/40/4 5/25/4
f 9/38/6 61/41/6 13/30/6
f 2/18/1 10/42/1 3/43/1
f 10/42/4 42/24/4 3/43/4
f 9/38/1 12/27/1 10/42/1
f 12/27/4 59/44/4 10/42/4
f 6/45/6 13/30/6 11/46/6
f 6/45/6 52/47/6 14/33/6
f 11/46/6 61/41/6 65/48/6
f 65/48/5 35/49/5 11/46/5
f 11/46/1 36/50/1 6/45/1
f 6/45/3 108/51/3 66/52/3
f 23/14/3 75/53/3 71/15/3
f 83/54/3 18/16/3 20/55/3
f 93/56/6 22/57/6 27/58/6
f 21/59/5 72/22/5 76/60/5
f 102/61/6 25/62/6 32/63/6
f 27/58/1 19/64/1 28/65/1
f 33/66/1 25/62/1 34/67/1
f 19/64/1 23/31/1 17/36/1
f 24/32/1 20/55/1 18/16/1
f 94/68/4 34/67/4 28/65/4
f 85/35/5 19/64/5 17/36/5
f 95/69/4 20/55/4 29/70/4
f 84/71/4 28/65/4 19/64/4
f 25/62/1 28/65/1 34/67/1
f 88/72/6 27/58/6 25/62/6
f 99/73/4 29/70/4 33/66/4
f 20/55/1 30/74/1 29/70/1
f 76/60/6 30/74/6 21/75/6
f 29/70/1 32/63/1 33/66/1
f 97/76/6 32/63/6 30/74/6
f 33/66/4 26/77/4 31/78/4
f 26/77/4 90/79/4 104/80/4
f 99/73/4 31/78/4 103/81/4
f 108/51/4 35/49/4 36/50/4
f 35/49/5 103/81/5 31/78/5
f 36/50/1 31/78/1 26/77/1
f 108/51/3 26/77/3 104/80/3
f 81/82/3 41/13/3 71/15/3
f 47/17/3 74/83/3 44/84/3
f 55/20/4 46/85/4 53/86/4
f 45/87/5 72/22/5 42/24/5
f 64/26/4 49/88/4 63/89/4
f 53/86/2 43/90/2 54/91/2
f 67/92/2 49/88/2 68/93/2
f 43/90/2 81/94/2 73/95/2
f 82/96/2 44/84/2 74/83/2
f 56/34/6 68/93/6 54/91/6
f 85/35/5 43/90/5 73/95/5
f 57/37/6 44/84/6 58/97/6
f 48/39/6 54/91/6 43/90/6
f 49/88/2 54/91/2 68/93/2
f 50/40/4 53/86/4 49/88/4
f 61/41/6 58/97/6 67/92/6
f 44/84/2 60/98/2 58/97/2
f 42/24/4 60/98/4 45/99/4
f 107/100/1 66/52/1 65/48/1
f 58/97/2 63/89/2 67/92/2
f 59/44/4 63/89/4 60/98/4
f 66/52/3 61/41/3 65/48/3
f 67/92/6 51/101/6 62/102/6
f 51/101/6 52/47/6 66/52/6
f 61/41/6 62/102/6 65/48/6
f 109/103/5 65/48/5 62/102/5
f 110/104/2 62/102/2 51/101/2
f 108/51/3 51/101/3 66/52/3
f 75/53/3 81/82/3 71/15/3
f 74/83/3 83/54/3 78/105/3
f 80/106/6 93/56/6 91/107/6
f 72/22/5 79/108/5 76/60/5
f 87/109/6 102/61/6 101/110/6
f 77/111/2 91/107/2 92/112/2
f 105/113/2 87/109/2 101/110/2
f 77/111/2 81/94/2 80/106/2
f 78/105/2 82/96/2 74/83/2
f 106/114/4 94/68/4 92/112/4
f 77/111/5 85/35/5 73/95/5
f 78/105/4 95/69/4 96/115/4
f 92/112/4 84/71/4 77/111/4
f 92/112/2 87/109/2 106/114/2
f 91/107/6 88/72/6 87/109/6
f 96/115/4 99/73/4 105/113/4
f 78/105/2 98/116/2 79/117/2
f 98/116/6 76/60/6 79/117/6
f 104/80/1 107/100/1 103/81/1
f 96/115/2 101/110/2 98/116/2
f 101/110/6 97/76/6 98/116/6
f 104/80/3 99/73/3 90/79/3
f 89/118/4 105/113/4 100/119/4
f 89/118/4 90/79/4 106/114/4
f 100/119/4 99/73/4 103/81/4
f 109/103/4 108/51/4 110/104/4
f 103/81/5 109/103/5 100/119/5
f 100/119/2 110/104/2 89/118/2
f 89/118/3 108/51/3 104/80/3
f 41/13/3 4/120/3 23/14/3
f 18/16/3 86/121/3 47/17/3
f 4/19/4 41/122/4 55/20/4
f 72/22/5 24/123/5 3/23/5
f 5/25/4 50/40/4 64/26/4
f 1/28/1 4/19/1 7/21/1
f 13/30/1 14/33/1 5/25/1
f 1/28/1 17/36/1 23/31/1
f 2/18/1 3/43/1 24/32/1
f 14/33/6 52/47/6 56/34/6
f 1/28/5 48/39/5 85/35/5
f 2/18/6 47/17/6 57/37/6
f 8/29/6 56/34/6 48/39/6
f 8/29/1 7/21/1 5/25/1
f 7/21/4 55/20/4 50/40/4
f 9/38/6 57/37/6 61/41/6
f 2/18/1 9/38/1 10/42/1
f 10/42/4 59/44/4 42/24/4
f 9/38/1 13/30/1 12/27/1
f 12/27/4 64/26/4 59/44/4
f 6/45/6 14/33/6 13/30/6
f 6/45/6 66/52/6 52/47/6
f 11/46/6 13/30/6 61/41/6
f 65/48/5 107/100/5 35/49/5
f 11/46/1 35/49/1 36/50/1
f 6/45/3 36/50/3 108/51/3
f 23/14/3 22/124/3 75/53/3
f 83/54/3 86/121/3 18/16/3
f 93/56/6 75/125/6 22/57/6
f 21/59/5 24/123/5 72/22/5
f 102/61/6 88/72/6 25/62/6
f 27/58/1 22/57/1 19/64/1
f 33/66/1 32/63/1 25/62/1
f 19/64/1 22/57/1 23/31/1
f 24/32/1 21/75/1 20/55/1
f 94/68/4 90/79/4 34/67/4
f 85/35/5 84/71/5 19/64/5
f 95/69/4 83/54/4 20/55/4
f 84/71/4 94/68/4 28/65/4
f 25/62/1 27/58/1 28/65/1
f 88/72/6 93/56/6 27/58/6
f 99/73/4 95/69/4 29/70/4
f 20/55/1 21/75/1 30/74/1
f 76/60/6 97/76/6 30/74/6
f 29/70/1 30/74/1 32/63/1
f 97/76/6 102/61/6 32/63/6
f 33/66/4 34/67/4 26/77/4
f 26/77/4 34/67/4 90/79/4
f 99/73/4 33/66/4 31/78/4
f 108/51/4 107/100/4 35/49/4
f 35/49/5 107/100/5 103/81/5
f 36/50/1 35/49/1 31/78/1
f 108/51/3 36/50/3 26/77/3
f 81/82/3 46/126/3 41/13/3
f 47/17/3 86/121/3 74/83/3
f 55/20/4 41/122/4 46/85/4
f 45/87/5 82/127/5 72/22/5
f 64/26/4 50/40/4 49/88/4
f 53/86/2 46/85/2 43/90/2
f 67/92/2 63/89/2 49/88/2
f 43/90/2 46/85/2 81/94/2
f 82/96/2 45/99/2 44/84/2
f 56/34/6 52/47/6 68/93/6
f 85/35/5 48/39/5 43/90/5
f 57/37/6 47/17/6 44/84/6
f 48/39/6 56/34/6 54/91/6
f 49/88/2 53/86/2 54/91/2
f 50/40/4 55/20/4 53/86/4
f 61/41/6 57/37/6 58/97/6
f 44/84/2 45/99/2 60/98/2
f 42/24/4 59/44/4 60/98/4
f 107/100/1 108/51/1 66/52/1
f 58/97/2 60/98/2 63/89/2
f 59/44/4 64/26/4 63/89/4
f 66/52/3 52/47/3 61/41/3
f 67/92/6 68/93/6 51/101/6
f 51/101/6 68/93/6 52/47/6
f 61/41/6 67/92/6 62/102/6
f 109/103/5 107/100/5 65/48/5
f 110/104/2 109/103/2 62/102/2
f 108/51/3 110/104/3 51/101/3
f 75/53/3 80/128/3 81/82/3
f 74/83/3 86/121/3 83/54/3
f 80/106/6 75/125/6 93/56/6
f 72/22/5 82/127/5 79/108/5
f 87/109/6 88/72/6 102/61/6
f 77/111/2 80/106/2 91/107/2
f 105/113/2 106/114/2 87/109/2
f 77/111/2 73/95/2 81/94/2
f 78/105/2 79/117/2 82/96/2
f 106/114/4 90/79/4 94/68/4
f 77/111/5 84/71/5 85/35/5
f 78/105/4 83/54/4 95/69/4
f 92/112/4 94/68/4 84/71/4
f 92/112/2 91/107/2 87/109/2
f 91/107/6 93/56/6 88/72/6
f 96/115/4 95/69/4 99/73/4
f 78/105/2 96/115/2 98/116/2
f 98/116/6 97/76/6 76/60/6
f 104/80/1 108/51/1 107/100/1
f 96/115/2 105/113/2 101/110/2
f 101/110/6 102/61/6 97/76/6
f 104/80/3 103/81/3 99/73/3
f 89/118/4 106/114/4 105/113/4
f 89/118/4 104/80/4 90/79/4
f 100/119/4 105/113/4 99/73/4
f 109/103/4 107/100/4 108/51/4
f 103/81/5 107/100/5 109/103/5
f 100/119/2 109/103/2 110/104/2
f 89/118/3 110/104/3 108/51/3
